<svg id="add" xmlns="http://www.w3.org/2000/svg" viewBox="0 0 54.55 42.42"><defs><style>.cls-1{fill:#664b87;}</style></defs><path class="cls-1" d="M56.86,24.57h0L48.94,18V4.93A1.14,1.14,0,0,0,47.8,3.79H42.5a1.14,1.14,0,0,0-1.14,1.14V11.8l-8.48-7a4.54,4.54,0,0,0-5.77,0l-3,2.43V10h6.06v.68a1.32,1.32,0,0,1,.52.22L53,29.26a1.14,1.14,0,0,0,1.6-.15h0L57,26.17A1.13,1.13,0,0,0,56.86,24.57Z" transform="translate(-2.72 -3.79)"/><path class="cls-1" d="M6.58,21.74,3.14,24.57A1.13,1.13,0,0,0,3,26.17H3L5.4,29.1a1.13,1.13,0,0,0,1.6.16H7l5.42-4.47V21.74Z" transform="translate(-2.72 -3.79)"/><path class="cls-1" d="M24.15,21.74v6.05H13.5l-1.68,1.38V44.7a1.52,1.52,0,0,0,1.51,1.51l10.61,0a1.51,1.51,0,0,0,1.51-1.51V35.6A1.52,1.52,0,0,1,27,34.09H33a1.52,1.52,0,0,1,1.51,1.51v9.06a1.52,1.52,0,0,0,1.51,1.52h0l10.61,0a1.52,1.52,0,0,0,1.51-1.51V29.16L30.73,14.79a1.32,1.32,0,0,0-.52-.22v7.17Z" transform="translate(-2.72 -3.79)"/><path class="cls-1" d="M8.37,19.74V12h6.05V6h7.73v6h6.06v7.73H22.15v6.05H14.42V19.74Z" transform="translate(-2.72 -3.79)"/></svg>