<svg id="Livello_9" data-name="Livello 9" xmlns="http://www.w3.org/2000/svg" viewBox="0 0 60 50"><defs><style>.cls-1{fill:#664c85;}</style></defs><path class="cls-1" d="M50.71,23.29l-4.12-4.07V6.39a1.09,1.09,0,0,0-1.1-1.11H37.74a1.09,1.09,0,0,0-1.1,1.11V9.27L32.57,5.15A3.94,3.94,0,0,0,30.13,4h-.26a3.84,3.84,0,0,0-2.28,1V8.18L29,6.74a1.15,1.15,0,0,1,1.94,0l6,6a1.13,1.13,0,0,0,1.9-.8V7.5h5.53V19.66a1.26,1.26,0,0,0,.31.8l4.2,4.2L46.59,27l-1-1L33.86,14.19v3.15L44,27.54l.35.35V40.68c0,.62-.13.84-.22.89s-.27.22-.89.22H34.6a.17.17,0,0,1-.18-.18V35.15a2.11,2.11,0,0,0-2.21-2.21H27.79a2.11,2.11,0,0,0-2.21,2.21v6.46a.17.17,0,0,1-.18.18H16.73c-.62,0-.85-.14-.89-.22s-.22-.27-.22-.89V27.89l.35-.35,1.63-1.63V22.73L14.38,26l-1,1-2.3-2.3,4.14-4.14H12.06L9.29,23.29a2.05,2.05,0,0,0-.66,1.37A2.24,2.24,0,0,0,9.29,26L12,28.65a2.14,2.14,0,0,0,1.46.66V40.68a3.52,3.52,0,0,0,.84,2.48,3.52,3.52,0,0,0,2.48.84h8.85a1.86,1.86,0,0,0,1.5-.71,2,2,0,0,0,.71-1.5V35.15h4.42v6.64a2,2,0,0,0,.71,1.5,1.93,1.93,0,0,0,1.5.71h8.85a3,3,0,0,0,3.32-3.32V29.31a2.14,2.14,0,0,0,1.46-.66L50.71,26a2.24,2.24,0,0,0,.66-1.33A2.05,2.05,0,0,0,50.71,23.29Z"/><path class="cls-1" d="M12.33,19.52v-8h6.26V5.34h8v6.18h6.26v8H26.6v6.27h-8V19.52Z"/></svg>