<svg xmlns="http://www.w3.org/2000/svg" xmlns:xlink="http://www.w3.org/1999/xlink" width="166.811" height="129"><defs><linearGradient id="a" x1=".5" y1="1" x2=".5" gradientUnits="objectBoundingBox"><stop offset="0" stop-color="gray" stop-opacity=".251"/><stop offset=".54" stop-color="gray" stop-opacity=".122"/><stop offset="1" stop-color="gray" stop-opacity=".102"/></linearGradient><linearGradient id="c" x1=".5" y1="1" x2=".5" xlink:href="#a"/><linearGradient id="b" x1=".5" y1="1" x2=".5" gradientUnits="objectBoundingBox"><stop offset="0" stop-opacity=".122"/><stop offset=".55" stop-opacity=".09"/><stop offset="1" stop-opacity=".02"/></linearGradient><linearGradient id="d" x1=".5" y1="1.001" x2=".5" y2=".001" xlink:href="#b"/><linearGradient id="e" x1=".5" x2=".5" xlink:href="#b"/><linearGradient id="f" x1=".5" x2=".5" xlink:href="#b"/><linearGradient id="g" y1=".5" x2="1" y2=".5" gradientUnits="objectBoundingBox"><stop offset="0" stop-color="#b56da8"/><stop offset="1" stop-color="#8e5082"/></linearGradient><linearGradient id="h" x1=".501" y1="1" x2=".501" y2="-.04" xlink:href="#a"/><linearGradient id="i" x1=".5" y1="1" x2=".5" xlink:href="#a"/><linearGradient id="j" x1=".235" y1=".5" x2=".758" y2="1.318" gradientUnits="objectBoundingBox"><stop offset="0" stop-color="#fa7009"/><stop offset="1" stop-color="#ffbc0d"/></linearGradient><linearGradient id="k" x1=".583" y1=".843" x2=".507" y2="-.039" xlink:href="#a"/><linearGradient id="l" x1=".605" y1=".995" x2=".391" y2=".017" xlink:href="#a"/></defs><g transform="translate(-.189)"><path d="M15.115 39.559c-.1-.094-.2-.2-.266-.275a1.169 1.169 0 0 1-.276-.529h.07l.033-.15a14.378 14.378 0 0 0-4.341-13.633.158.158 0 0 0 .02-.035A14.99 14.99 0 0 0 10.527 16a25.912 25.912 0 0 0 2.322-3.472c2.395-1.828 4.882-4.465 5.651-7.894a9.9 9.9 0 0 0 .2-1.127 1.2 1.2 0 0 0 .18-1.389 1.322 1.322 0 0 0-.086-.181.453.453 0 0 0-.033-.051 1.125 1.125 0 0 0-.069-.1l-.045-.051a1.02 1.02 0 0 0-.072-.072l-.051-.043-.078-.055-.055-.033-.091-.04-.053-.023-.094-.031-.053-.014a1.21 1.21 0 0 0-.133-.027 2.1 2.1 0 0 0-.887.088s-.7 1.217-.429 1.681c-.213.269-.783.989-1.566 1.913a10.492 10.492 0 0 0-.233-2.305 9.915 9.915 0 0 0-.288-1.108 1.189 1.189 0 0 0-.407-1.338A1.336 1.336 0 0 0 14 .2l-.047-.036A1.146 1.146 0 0 0 13.85.1l-.061-.026a.97.97 0 0 0-.1-.037L13.63.02 13.536 0h-.215l-.1.01h-.049a1.1 1.1 0 0 0-.133.031 2.1 2.1 0 0 0-.771.445s-.137 1.4.305 1.708a67.168 67.168 0 0 1-2.612 8.186 15.658 15.658 0 0 1-1.443 1.1v-.3a1.554 1.554 0 0 0 0-.166 1.541 1.541 0 0 0-.025-.158l.025-.014.106-.059.153-.094.1-.062q.11-.076.211-.158l.08-.068c.049-.041.094-.084.141-.127l.067-.094q.084-.086.163-.179l.057-.068a2.194 2.194 0 0 0 .141-.2l.057-.084q.061-.094.116-.2l.031-.049a4.06 4.06 0 0 0 .125-.257l.031-.078q.043-.105.078-.216a.29.29 0 0 1 .025-.076c.029-.094.055-.2.074-.289a.123.123 0 0 1 .01-.059q.023-.125.039-.252v-.085c0-.1.016-.207.016-.314A3.412 3.412 0 0 0 9.9 6.093l.163-.043.119-.037c.045-.016.067-.029.061-.039-.084-.113-.17-.22-.258-.326l-.086-.1a1.421 1.421 0 0 0-.2-.2l-.1-.1c-.063-.06-.125-.121-.2-.177l-.1-.088c-.078-.068-.157-.131-.237-.2l-.051-.041c-.1-.07-.2-.137-.288-.2l-.11-.066a2.0891 2.0891 0 0 0-.2-.111L8.3 4.314l-.18-.086-.131-.058c-.063-.025-.127-.051-.2-.072l-.119-.043c-.1-.031-.2-.059-.288-.084l-.149-.033-.154-.038-.161-.025-.147-.018-.164-.014H6.3a2.706 2.706 0 0 0-.272.014C3.9 4.035 2.033 5.888 2.033 8.831v2.446h3.328v1.108a3.438 3.438 0 0 0-2.005 3.121v9.434L.562 37.87H.548v.03L0 40.339 4.153 41a.212.212 0 0 0 .131-.244.764.764 0 0 0-.049-.2A3.278 3.278 0 0 0 4 40.1c-.147-.252-.321-.521-.439-.765a1.7 1.7 0 0 1-.135-.39 1.5 1.5 0 0 1-.027-.211l3.055-10.007H6.44l.072-.236s3.9 1.666 4.9 4.995A7.787 7.787 0 0 1 11.5 38.5h-.014v.033c-.043.107-.074.168-.074.168h.074v1.831H15.7c.319-.162-.17-.57-.585-.973z" transform="translate(66 88)" fill="url(#a)"/><path data-name="Path" d="M74.933 108s6.859-7.649 4.617-15l-1.8.392s-2.413 10.773-4.985 12.318 2.168 2.29 2.168 2.29z" fill="#925386"/><path data-name="Path" d="M74.933 108s6.859-7.649 4.617-15l-1.8.392s-2.413 10.773-4.985 12.318 2.168 2.29 2.168 2.29z" opacity=".05"/><path data-name="Path" d="M79.15 93.065l.34-.065c2.542 7.351-5.251 15-5.251 15l-.239-.037c.9-.921 7.522-8.043 5.15-14.898z" fill="#fff" opacity=".2"/><path data-name="Path" d="M78.857 93.626s.454-.59-.257-1.326-1.583.133-1.583.133-.124 1.312.295 1.519 1.545-.326 1.545-.326z" fill="#985454"/><path data-name="Path" d="M79.516 93.684s.678-.6-.384-1.344A1.67 1.67 0 0 0 78 92.048a1.747 1.747 0 0 1 1.4.252c1.062.747.384 1.344.384 1.344a9.867 9.867 0 0 1-1.558.356 10.667 10.667 0 0 0 1.29-.316z" fill="#fff" opacity=".2"/><rect width="155" height="94" rx="9" transform="translate(5)" fill="url(#c)"/><rect data-name="Rectangle" width="151" height="91" rx="9" transform="translate(6 1)" fill="#fff"/><path data-name="Rectangle" fill="#e0e0e0" d="M19 15h4v12h-4zM24 15h4v12h-4zM30 15h4v12h-4zM40 15h4v12h-4zM45 15h4v12h-4zM51 15h4v12h-4zM61 15h4v12h-4zM66 15h4v12h-4zM72 15h4v12h-4zM82 15h4v12h-4zM87 15h4v12h-4zM93 15h4v12h-4z"/><path data-name="Rectangle" fill="#bdbdbd" d="M18 78h38v6H18z"/><path data-name="Rectangle" fill="#e0e0e0" d="M18 68h66v6H18z"/><path data-name="Path" d="M9.747 8.771a.9.9 0 0 1 .253-.66.953.953 0 0 1 .657-.294H12V0H0v9h9.749z" transform="translate(118 38)" fill="url(#b)"/><path data-name="Path" d="M10.653 1.182A.953.953 0 0 1 10 .889a.9.9 0 0 1-.249-.66V0H0v9h12V1.182z" transform="translate(118 55)" fill="url(#d)"/><path data-name="Rectangle" transform="translate(118 49)" fill="url(#e)" d="M0 0h10v5H0z"/><path data-name="Path" d="M2.249.229A.9.9 0 0 1 2 .889a.953.953 0 0 1-.657.294H0V9h12V0H2.249z" transform="translate(131 55)" fill="url(#b)"/><path data-name="Path" d="M0 0v7.818h1.343A.953.953 0 0 1 2 8.111a.9.9 0 0 1 .249.66V9H12V0z" transform="translate(131 38)" fill="url(#f)"/><path data-name="Rectangle" transform="translate(133 49)" fill="url(#e)" d="M0 0h10v5H0z"/><path data-name="Path" d="M8.937 7.8a.836.836 0 0 1 .831-.84H11V0H0v8h8.937z" transform="translate(118 40)" fill="url(#g)"/><path data-name="Path" d="M9.769 1.042A.836.836 0 0 1 8.938.2V0H0v8h11V1.042z" transform="translate(118 54)" fill="url(#g)"/><path data-name="Rectangle" fill="#ffbc0d" d="M118 49h9v4h-9z"/><path data-name="Path" d="M2.064.2a.837.837 0 0 1-.831.84H0V8h11V0H2.064z" transform="translate(131 54)" fill="url(#g)"/><path data-name="Path" d="M0 0v6.958h1.232a.836.836 0 0 1 .831.84V8H11V0z" transform="translate(131 40)" fill="url(#g)"/><path data-name="Rectangle" fill="#ffbc0d" d="M133 49h9v4h-9z"/><path data-name="Path" d="M.335.332L.38.182S-.175.1.335.332z" transform="translate(4.23 84.413)" fill="url(#h)" opacity=".2"/><g data-name="Group"><path data-name="Path" d="M24.678 4.794A1.382 1.382 0 0 0 24.6 4.6c0-.019-.021-.037-.031-.056a1.182 1.182 0 0 0-.064-.108c-.014-.019-.029-.037-.043-.056s-.046-.055-.07-.081l-.051-.048a.8.8 0 0 0-.078-.064l-.055-.039-.086-.05-.055-.029-.1-.04-.049-.019q-.07-.023-.139-.039a2.237 2.237 0 0 0-.935.029s-.9 1.305-.551 1.774l-.113-.035s-6.658 7.327-10.414 8.7q-.145-.1-.3-.181v-1.377a1.6 1.6 0 0 0 0-.172 1.587 1.587 0 0 0-.027-.164l.027-.015.111-.062.162-.1.1-.066q.115-.079.225-.166l.084-.071c.051-.042.1-.087.148-.133l.086-.083a2.467 2.467 0 0 0 .172-.193l.061-.073q.078-.094.148-.193l.061-.089q.064-.1.123-.193l.037-.066c.047-.087.092-.177.131-.27l.033-.081q.045-.112.084-.226a.254.254 0 0 1 .027-.079 2.713 2.713 0 0 0 .078-.3.12.12 0 0 1 .012-.062q.025-.129.041-.262v-.084c.01-.108.018-.218.018-.328a3.551 3.551 0 0 0-.808-2.258c.285-.44.471-.7.471-.7-.172-.116-.34-.224-.508-.324l-.163-.092c-.111-.066-.225-.131-.334-.193l-.2-.1c-.1-.052-.2-.1-.3-.15l-.2-.087c-.1-.042-.2-.085-.283-.121l-.2-.073c-.094-.037-.2-.069-.281-.1l-.176-.058c-.1-.031-.2-.056-.287-.081L10 4.971a6.4498 6.4498 0 0 0-.318-.067L9.57 4.88a5.7982 5.7982 0 0 0-.426-.058 5.137 5.137 0 0 0-2.557.386 4.625 4.625 0 0 1 .574-2.356l-.088-.029-.031.029s-.105.023-.268.052a2.2 2.2 0 0 0-.139.256 2.915 2.915 0 0 1 .408-1l-.088-.029c.129-.131.588-.689-.029-1.599-.705-1.043-2-.231-2-.231a5.337 5.337 0 0 0-.2 1.053c-.1-.039-.168-.069-.215-.093a25.98 25.98 0 0 0-1 6.622C1.186 11.147.221 15.966.033 17.005l-.014.083C.006 17.163 0 17.2 0 17.2l6.055.139v9.526l-4.418 9.2s1.67.06 4.209.386l-.7 4.921-.232 1.381h4.2c.467-.92-1.865-1.381-1.865-1.381h-.056l.91-4.591q.6.1 1.24.22a12.3 12.3 0 0 0 1.889.21 10.168 10.168 0 0 0 1.572-.067 10.736 10.736 0 0 1-.174 4.231h-.025l-.232 1.381h4.2c.406-.8-1.314-1.255-1.758-1.35l.02-.135A22.813 22.813 0 0 0 15 36.583a5.762 5.762 0 0 0 1.492-.879l.059-.05.018-.017-3.125-8.652c.586-2.449-1.449-5.013-.363-6.307a3.151 3.151 0 0 0 .3-3.207c2.93-1.265 8.865-4.435 10.529-9.925a10.275 10.275 0 0 0 .3-1.176s.833-.37.468-1.576z" transform="translate(.189 83.191)" fill="url(#i)" opacity=".2"/></g><path data-name="Path" d="M5.017 87.008S1.582 96.658 7.336 102L9 100.873S5.6 90.34 7.5 87.866c-3.356-1.008-2.483-.858-2.483-.858z" fill="#ff5252"/><path data-name="Path" d="M7.751 86.866s.559-.5 0-1.405-1.585-.2-1.585-.2-.374 1.3 0 1.605 1.585 0 1.585 0z" fill="#f6b9ad"/><rect data-name="Rectangle" width="3" height="4" rx="1.5" transform="rotate(180 6 50)" fill="#f6b9ad"/><path data-name="Path" d="M8.711 101.808s-2.77-11.02-1.261-13.73c.134-.028.219-.05.219-.05L7.693 88l.071.028C6.2 90.649 9 101.806 9 101.806L7.629 103l-.12-.147z" fill="#fff" opacity=".2"/><circle cx="3.5" cy="3.5" r="3.5" transform="translate(7 90)" fill="#f6b9ad"/><path data-name="Path" d="M11.17 98.583v-1.366a1.545 1.545 0 0 0-.03-.3 3.249 3.249 0 0 0 1.479-3.437A2.946 2.946 0 0 0 10 91h.166a2.916 2.916 0 0 1 2.754 2.4 3.258 3.258 0 0 1-1.452 3.52 1.545 1.545 0 0 1 .03.3v1.363a1.474 1.474 0 0 1-.432 1.066 1.2 1.2 0 0 1-1.013.339 1.382 1.382 0 0 0 1.117-1.405z" fill="#fff" opacity=".2"/><path data-name="Path" d="M0 12.672s6.465.738 6.7 0c.772-2.389-1.3-4.963-.259-6.222A3.127 3.127 0 0 0 6.7 3.387a3.405 3.405 0 0 0-.982-2.4A3.334 3.334 0 0 0 3.352 0 3.37 3.37 0 0 0 0 3.387z" transform="translate(7 98)" fill="url(#j)"/><path data-name="Path" d="M13.426 104.45a3.035 3.035 0 0 0 .268-3.063 3.347 3.347 0 0 0-1.017-2.395A3.514 3.514 0 0 0 10.223 98a1.4 1.4 0 0 0-.223.012 3.419 3.419 0 0 1 3.245 3.375 3.035 3.035 0 0 1-.268 3.063c-1.077 1.261 1.065 3.835.268 6.222-.077.228-.767.315-1.683.327 1.132.012 2.04-.063 2.128-.327.81-2.389-1.339-4.963-.264-6.222z" fill="#fff" opacity=".2"/><path data-name="Path" d="M12.106 110c2.335 3.245 3.36 8.144 2.694 12.859l-.019.141h-1.994a10.3 10.3 0 0 0 0-4.928 7.773 7.773 0 0 0-3.017-4.717L7.851 123H6l1.851-13zM22.552 91s.664-.29.375-1.285-1.436-.661-1.436-.661-.7 1.08-.43 1.468 1.491.478 1.491.478z" fill="#f6b9ad"/><path data-name="Path" d="M2.007 11S11.63 7.864 13 .549L11.217 0S4.134 7.951 1.138 8.008 2.007 11 2.007 11z" transform="translate(10 91)" fill="url(#j)"/><path data-name="Path" d="M22.708 91l.292.1C21.656 98.729 12.168 102 12.168 102l-.168-.14c1.116-.417 9.455-3.741 10.708-10.86z" fill="#fff" opacity=".2"/><g data-name="Group" opacity=".2" fill="#fff"><path data-name="Path" d="M9.126 113.417l-1.986 9.429h.44l1.928-9.154q-.183-.147-.382-.275zM11.98 110.139h-.438a17.147 17.147 0 0 1 2.786 12.571l-.02.137h.434l.02-.137a17.228 17.228 0 0 0-2.782-12.571z"/></g><path data-name="Path" d="M23.177 90.945a.923.923 0 0 0 .5-1.307 1.033 1.033 0 0 0-.7-.638 1.11 1.11 0 0 1 .929.693A.928.928 0 0 1 23.41 91a8 8 0 0 1-1.41-.214 8.775 8.775 0 0 0 1.177.159z" fill="#fff" opacity=".2"/><path data-name="Path" d="M6.147 110L2 118.01a55.938 55.938 0 0 1 7.219.8c4.594.8 6.781-1.2 6.781-1.2L13.038 110z" fill="#263238"/><path data-name="Path" d="M8.189 123s2.2.333 1.751 1H6l.22-1zM14.189 123s2.2.333 1.751 1H12l.22-1z" fill="#ff5252"/><path data-name="Path" d="M13 90.517S7.856 97.948 10.214 101L1 100.78s2.571-16.82 12-10.263z" fill="#ffbc0d"/><path data-name="Path" d="M13 90.493A7.73 7.73 0 0 0 9.411 89a9 9 0 0 1 2.519 1.275s-5.143 7.44-2.787 10.505l-8.112-.2c-.022.124-.031.2-.031.2l9.215.22C7.855 97.933 13 90.493 13 90.493zM13.036 110h-.648l2.958 7.611A7.015 7.015 0 0 1 11 119a7.327 7.327 0 0 0 5-1.389zM7.391 123H7s1.963.333 1.563 1h.384c.397-.667-1.556-1-1.556-1zM14.39 123H14s1.957.333 1.559 1h.39c.389-.667-1.559-1-1.559-1z" fill="#fff" opacity=".2"/><g data-name="Group"><path data-name="Path" d="M.142.209l.05.12c.4-.26-.05-.12-.05-.12z" transform="translate(159.173 87.446)" fill="url(#k)" opacity=".2"/></g><path d="M6.525 36.824a.137.137 0 0 1-.1-.091c-.04-.146.174-.405.4-.68l.023-.028.072-.09c.066-.082.134-.169.191-.253a1.171 1.171 0 0 0 .126-.242.877.877 0 0 0 .043-.151.7.7 0 0 0 .02-.089h-.065l-.041-.124A12.464 12.464 0 0 1 9.5 22.99a.118.118 0 0 1-.02-.027 12.854 12.854 0 0 1-.952-8.023 21.269 21.269 0 0 1-3.946-2.934C2.085 9.661.677 7.173.393 4.611a8.793 8.793 0 0 1-.065-1c-.063-.044-.6-.455-.156-1.328L.19 2.25l.026-.04.015-.023.031-.048.019-.025.031-.038.022-.023.03-.032L.384 2l.032-.031.021-.018.038-.029.019-.012.056-.035.059-.031H.63l.04-.017h.025l.038-.012h.3a1.769 1.769 0 0 1 .732.158c.054.125.5 1.207.179 1.518l.094-.012c.049.08 4.891 7.966 7.588 8.833.058-.047.116-.09.172-.129l-.13-1.1a1.234 1.234 0 0 1 0-.141 1.178 1.178 0 0 1 0-.139 2.928 2.928 0 0 1-.85-.5 2.772 2.772 0 0 1-.276-.266l-.014-.015a2.6687 2.6687 0 0 1-.114-.134v-.01c-.036-.045-.074-.1-.114-.153v-.013c-.033-.048-.063-.1-.091-.142l-.02-.032a3.173 3.173 0 0 1-.167-.331L8 9.164c-.022-.055-.039-.1-.053-.144l-.014-.034a4.221 4.221 0 0 1-.053-.178v-.039c-.014-.053-.025-.1-.034-.148l-.01-.051c0-.017-.006-.033-.01-.049a.724.724 0 0 1-.019-.142 2.958 2.958 0 0 1 .059-1.031c.022-.09.048-.181.08-.276.015-.042.028-.082.049-.134s.038-.089.057-.133l.009-.021a1 1 0 0 0-.253-.175 1.362 1.362 0 0 0-.531-.109h-.192l-.1.014h-.293a.844.844 0 0 1-.205-.081.874.874 0 0 0-.334-.133l.2-.027.07-.012.133-.025.084-.019.116-.029.09-.024.106-.033.097-.031.1-.036.094-.037.1-.04.094-.042.091-.045.092-.047a1.878 1.878 0 0 0 .191-.1 1.044 1.044 0 0 1-.3.113H7.1l-.075-.014-.06-.013-.044-.013-.055-.016-.044-.01-.053-.022-.04-.017-.06-.033-.029-.015-.084-.055-.023-.018-.057-.046-.027-.024-.049-.055-.024-.027-.044-.053-.02-.025a1.4182 1.4182 0 0 1-.058-.086h.012a.488.488 0 0 0 .124.022l.091.012c.059.006.12.009.18.009a1.8 1.8 0 0 0 .649-.12c.044-.018.092-.039.154-.068h.01a1.413 1.413 0 0 0 .138-.079l.02-.012a.461.461 0 0 1-.078.01h-.026a.57.57 0 0 1-.2-.037.645.645 0 0 1-.137-.073.7.7 0 0 1-.3-.445.559.559 0 0 1 0-.231c.029.023.059.045.092.067l.082.05a1.191 1.191 0 0 0 .8.131l.038-.009c.02 0 .041-.009.061-.015a3.634 3.634 0 0 0 .68-.343 1.79 1.79 0 0 1 .19-.1L8.9 4.07l.164-.065.1-.032.133-.042.112-.031.068-.015a2.667 2.667 0 0 1 .278-.052l.167-.019c.11-.01.221-.015.331-.015a3.691 3.691 0 0 1 2.211.743 3.612 3.612 0 0 1 .466.434 4.662 4.662 0 0 0-.761-2.51l.067-.032.027.022a1.283 1.283 0 0 0 .22.017 1.723 1.723 0 0 1 .137.192 2.406 2.406 0 0 0-.422-.782l.067-.033a.988.988 0 0 1-.13-1.307.923.923 0 0 1 .883-.543 1.8 1.8 0 0 1 .7.157 4.439 4.439 0 0 1 .258.843c.08-.044.131-.074.164-.1.341.8 3.234 7.935.269 13.046a2.9 2.9 0 0 1 .051.3l.952 8.061L19.1 33.083h.012l.01.029.7 2.01-3.308.958-.006.015-.1.029-.046.014a.169.169 0 0 1-.125-.127.373.373 0 0 1 0-.148 1.048 1.048 0 0 1 .028-.129 4.426 4.426 0 0 1 .228-.575c.076-.169.154-.344.208-.5a1.582 1.582 0 0 0 .049-.192 1.4 1.4 0 0 0 .029-.246v-.1l-3.591-8.243h.012l-.084-.192c-.03.017-3.139 1.862-3.646 4.762a6.72 6.72 0 0 0 .43 4.287h.012v.029c.049.087.08.134.08.134h-.061l.191 1.565-3.406.337-.191.022zm6.326-26.774a2.961 2.961 0 0 1-.571.477 1.371 1.371 0 0 1 .049.232l.12 1.03c.073.024.142.05.211.078.078-.65.141-1.244.191-1.817z" transform="translate(145.098 86.159)" fill="url(#l)" data-name="Group" opacity=".2"/><path data-name="Path" d="M145.322 90.969s-.608-.429-.153-1.401 1.547-.4 1.547-.4.505 1.255.168 1.6-1.562.201-1.562.201z" fill="#ca7070"/><path data-name="4d99488d-df05-4ea4-b0bc-86897bea43e0" d="M155.784 126l-2.834.286a.721.721 0 0 1-.188.644c-.33.417-1.034.951-.651 1.07l3.889-.394z" fill="#00695c"/><path data-name="Path" d="M152.827 126.742a1.039 1.039 0 0 0 .16-.742l-.176.024a1.039 1.039 0 0 1-.16.742c-.282.481-.883 1.097-.556 1.234l.176-.024c-.325-.137.276-.753.556-1.234z" fill="#fff" opacity=".2"/><path data-name="4d5dc8b9-511c-4b13-afe4-1a204679192b" d="M166.205 124l-2.666.681a1.105 1.105 0 0 1-.01.86c-.222.578-.796 1.352-.384 1.459l3.855-.976z" fill="#00695c"/><path data-name="Path" d="M160.172 88.017s4.31 9.742-.306 15.983l-1.658-1.006s1.834-11.425-.208-13.809c2.953-1.416 2.172-1.168 2.172-1.168z" fill="#00af9e"/><path data-name="Path" d="M158.322 88.969s-.608-.429-.153-1.401 1.547-.4 1.547-.4.505 1.255.168 1.6-1.562.201-1.562.201z" fill="#ca7070"/><path data-name="Path" d="M163.691 125.518a1.179 1.179 0 0 0 .009-.86l2.3-.629-.011-.029-2.489.681a1.179 1.179 0 0 1-.009.86c-.205.578-.74 1.352-.355 1.459l.15-.041c-.286-.159.204-.889.405-1.441z" fill="#fff" opacity=".2"/><rect data-name="Rectangle" width="2.977" height="4.416" rx="1.488" transform="rotate(-6.78 913.1301 -1273.8896)" fill="#ca7070"/><path data-name="Path" d="M158.531 103.016s1.83-10.638-.172-12.975a1.477 1.477 0 0 1-.251-.019l-.032-.022-.076.034c2.063 2.244.21 13.018.21 13.018l1.674.948c.039-.051.078-.1.116-.153z" fill="#fff" opacity=".2"/><ellipse data-name="Oval" cx="3.296" cy="3.299" rx="3.296" ry="3.299" transform="rotate(-6.78 870.9333 -1256.457)" fill="#ca7070"/><path data-name="Path" d="M156.6 100.705l-.164-1.361a1.393 1.393 0 0 1 0-.3 3.137 3.137 0 0 1 .558-6.044l-.186.015a3.138 3.138 0 0 0-.745 6.069 1.393 1.393 0 0 0 0 .3l.162 1.361a1.408 1.408 0 0 0 .608 1.005 1.443 1.443 0 0 0 1.167.206 1.437 1.437 0 0 1-1.4-1.251z" fill="#fff" opacity=".2"/><path data-name="Path" d="M162 112.033s-6.294 1.476-6.619.78a14.247 14.247 0 0 1-1.071-9.084 3.336 3.336 0 0 1 2.92-3.706 3.332 3.332 0 0 1 3.7 2.926z" fill="#00af9e"/><path data-name="Path" d="M161.7 112l4.3 12.435-2.792.329-4.017-9.13s-3.435 1.966-3.999 5.166.566 4.838.566 4.838l-2.984.362-.047-.135a13.32 13.32 0 0 1 2.563-13.102" fill="#263238"/><path data-name="Path" d="M155.57 112.764a16.3 16.3 0 0 1-.928-9.09 3.307 3.307 0 0 1 2.344-3.674.667.667 0 0 0-.186.018 2.818 2.818 0 0 0-1.93 1.247 3.72 3.72 0 0 0-.6 2.46 16.3 16.3 0 0 0 .928 9.09c.1.248.863.219 1.8.078-.758.092-1.342.086-1.428-.129z" fill="#fff" opacity=".2"/><path data-name="Path" d="M154.45 104s-9.408-5.016-9.45-12.77l1.954-.23s5.865 9.474 8.967 10.1-1.471 2.9-1.471 2.9z" fill="#00af9e"/><g data-name="Group" opacity=".2" fill="#fff"><path data-name="Path" d="M159.476 116.312l3.983 9.276.417-.048-4.057-9.452s-.13.072-.343.224zM155.877 113.101l-.417.051a14.056 14.056 0 0 0-2.589 13.564l.048.14.418-.055-.048-.14a14.056 14.056 0 0 1 2.588-13.56z"/></g><path data-name="Path" d="M145.3 91l-.3.038c.039 7.87 8.815 12.962 8.815 12.962l.185-.108c-1.013-.627-8.66-5.551-8.7-12.892z" fill="#fff" opacity=".2"/><path data-name="Path" d="M154.4 94.457a5.044 5.044 0 0 1 .55 1.237 3.511 3.511 0 0 0 1.81 2.074 3.581 3.581 0 0 0 1.552.221 2.959 2.959 0 0 0 2.145-.889 2.562 2.562 0 0 0 .518-1.38 4.341 4.341 0 0 0-1.721-3.913 4.317 4.317 0 0 0-4.388-.375 4.206 4.206 0 0 1-.778.375 1.415 1.415 0 0 1-1.231-.242.693.693 0 0 0 .194.623.775.775 0 0 0 .643.217 2.19 2.19 0 0 1-1.594.262 1.405 1.405 0 0 0 1.785.459 4.761 4.761 0 0 1-1.885.593c.14-.013.441.2.617.227a3.893 3.893 0 0 0 .646-.028 1.276 1.276 0 0 1 1.137.54z" fill="#263238"/><g data-name="Group" opacity=".2" fill="#fff"><path data-name="Path" d="M152.76 92.459a2.221 2.221 0 0 1-.78.276 2.251 2.251 0 0 0 1-.3.82.82 0 0 1-.6-.164.694.694 0 0 1-.268-.514 1.313 1.313 0 0 1-.2-.123.667.667 0 0 0 .2.611.8.8 0 0 0 .648.214zM153.38 91.847a4.332 4.332 0 0 0 .79-.368 4.031 4.031 0 0 1 1.276-.385 4.1 4.1 0 0 0-1.5.407 4.332 4.332 0 0 1-.79.368c-.032.012-.072.017-.11.025a1.423 1.423 0 0 0 .334-.047zM151.886 93.953c-.178-.028-.484-.236-.626-.223a4.948 4.948 0 0 0 1.918-.582 1.3 1.3 0 0 1-.43.133 4.969 4.969 0 0 1-1.708.473c.142-.013.448.194.626.223a1.594 1.594 0 0 0 .46-.017 1.041 1.041 0 0 1-.24-.007zM157.67 97.919a3.746 3.746 0 0 1-1.576-.217 3.509 3.509 0 0 1-1.838-2.034 4.933 4.933 0 0 0-.558-1.216 1.312 1.312 0 0 0-1.156-.533 2.384 2.384 0 0 0-.326.03h.108a1.312 1.312 0 0 1 1.156.531 4.88 4.88 0 0 1 .558 1.216 3.488 3.488 0 0 0 1.838 2.037 3.746 3.746 0 0 0 1.576.217 3.007 3.007 0 0 0 .382-.031zM152.608 93.288a1.446 1.446 0 0 1-1.2-.534 2.205 2.205 0 0 1-.264-.037 1.453 1.453 0 0 0 1.464.571z"/></g><path data-name="Path" d="M145.712 90.949s-.855-.429-.212-1.401a1.242 1.242 0 0 1 .889-.548 1.335 1.335 0 0 0-1.151.566c-.642.972.215 1.4.215 1.4a9.172 9.172 0 0 0 1.547.001 10.018 10.018 0 0 1-1.288-.018z" fill="#fff" opacity=".2"/><path d="M78 126h2.845a1.022 1.022 0 0 0 .269.773c.386.469 1.153 1.033.792 1.227H78z" fill="#925386"/><path data-name="Path" d="M81.2 126.773A1.267 1.267 0 0 1 81 126h.153a1.267 1.267 0 0 0 .2.773c.279.469.847 1.033.578 1.227h-.151c.269-.194-.295-.758-.58-1.227z" fill="#fff" opacity=".2"/><path data-name="0e0e20dd-ea7e-4aa3-ac26-380ed6cfbd4b" d="M67.518 125l2.682.448a1.421 1.421 0 0 0 .122.962c.292.621.941 1.419.555 1.59L67 127.36z" fill="#925386"/><path data-name="Path" d="M70 126.41a1.258 1.258 0 0 1-.145-.962L67 125.033V125l3.084.448a1.258 1.258 0 0 0 .141.962c.335.621 1.081 1.419.638 1.59l-.186-.027c.344-.215-.361-.973-.677-1.563z" fill="#fff" opacity=".2"/><rect data-name="Rectangle" width="3" height="4" rx="1.5" transform="rotate(180 37.5 51)" fill="#985454"/><circle data-name="Oval" cx="3.5" cy="3.5" r="3.5" transform="translate(70 93)" fill="#985454"/><path data-name="Path" d="M75.167 100.583v-1.366a1.55 1.55 0 0 0-.03-.3 3.254 3.254 0 0 0 1.474-3.437A2.94 2.94 0 0 0 74 93h.166a2.908 2.908 0 0 1 2.754 2.4 3.26 3.26 0 0 1-1.457 3.526 1.55 1.55 0 0 1 .03.3v1.36a1.476 1.476 0 0 1-.43 1.066 1.191 1.191 0 0 1-1.009.339 1.381 1.381 0 0 0 1.113-1.408z" fill="#fff" opacity=".2"/><path data-name="Path" d="M0 12.672s6.076.738 6.3 0a15.468 15.468 0 0 0 0-9.285A3.52 3.52 0 0 0 5.378.992 3.043 3.043 0 0 0 3.15 0 3.273 3.273 0 0 0 0 3.369z" transform="translate(70 100)" fill="url(#g)"/><path data-name="Path" d="M69.881 113L67 126h2.881l2.988-9.645s3.736 1.573 4.7 4.717 0 4.928 0 4.928h3.094l.031-.141A13.372 13.372 0 0 0 76.5 113" fill="#263238"/><path data-name="Path" d="M75.908 112.689a15.721 15.721 0 0 0 0-9.3A3.284 3.284 0 0 0 73 100h.2a3.258 3.258 0 0 1 3.109 3.368 15.719 15.719 0 0 1 0 9.3c-.08.264-.9.339-1.919.327.827 0 1.449-.085 1.518-.306z" fill="#fff" opacity=".2"/><g data-name="Group" opacity=".2" fill="#fff"><path data-name="Path" d="M73.49 116.551l-3.034 9.39h-.442l3.09-9.565s.148.058.386.175zM76.858 113.049h.442a12.938 12.938 0 0 1 4.336 12.753l-.032.139h-.446l.032-.139a12.938 12.938 0 0 0-4.332-12.753z"/></g><path data-name="Path" d="M2.287 12S12.122 8.058 13 .432L11.094 0S4.278 8.7 1.147 8.985 2.287 12 2.287 12z" transform="translate(72 92)" fill="url(#g)"/><path data-name="Path" d="M84.68 92l.32.074C84.114 99.936 74.2 104 74.2 104l-.2-.13c1.171-.508 9.854-4.546 10.68-11.87z" fill="#fff" opacity=".2"/><path data-name="Path" d="M84.606 92s.64-.348.288-1.343-1.483-.565-1.483-.565-.626 1.159-.333 1.535 1.528.373 1.528.373z" fill="#985454"/><path data-name="Path" d="M84.224 91.955a.914.914 0 0 0 .391-1.355 1.109 1.109 0 0 0-.775-.6 1.189 1.189 0 0 1 1.016.648.913.913 0 0 1-.391 1.352A8.428 8.428 0 0 1 83 91.867a9.231 9.231 0 0 0 1.224.088z" fill="#fff" opacity=".2"/><path data-name="Path" d="M73.963 95.639L73.765 100H69v-2.3c0-4.651 5.117-6.416 8-2.679a30.975 30.975 0 0 1-3.037.618z" fill="#263238"/><path data-name="Path" d="M73 93.013a4.706 4.706 0 0 1 3.356 2.006 29.326 29.326 0 0 1-2.949.623L73.2 100h.639l.211-4.357a28.81 28.81 0 0 0 2.95-.624 4.57 4.57 0 0 0-4-2.006z" fill="#fff" opacity=".2"/></g></svg>