<svg xmlns="http://www.w3.org/2000/svg" width="149" height="111"><defs><linearGradient id="a" x1=".5" y1="1" x2=".5" gradientUnits="objectBoundingBox"><stop offset="0" stop-color="gray" stop-opacity=".251"/><stop offset=".54" stop-color="gray" stop-opacity=".122"/><stop offset="1" stop-color="gray" stop-opacity=".102"/></linearGradient><linearGradient id="b" x1=".235" y1=".5" x2=".758" y2="1.318" gradientUnits="objectBoundingBox"><stop offset="0" stop-color="#fa7009"/><stop offset="1" stop-color="#ffbc0d"/></linearGradient></defs><path d="M0 0h101v73.483H36.783L29.845 86l-7.289-12.517H0V0z" fill="url(#a)"/><path data-name="Path" d="M1 1h98v71.213H35.393L29.5 85l-6.615-12.787H1V1z" fill="#f5f5f5"/><path fill="#925386" opacity=".3" d="M87 26H14v-3h73z"/><path data-name="Rectangle" fill="#925386" opacity=".3" d="M87 33H14v-3h73zM87 39H14v-3h73zM87 46H14v-3h73z"/><path data-name="Path" d="M100 0H0v73.483l64.527-.036L70.608 86l7.059-12.517H100V0z" transform="translate(49 25)" fill="url(#a)"/><path data-name="Path" d="M148 26H50v71.213h63.607L119.5 110l6.617-12.787H148V26z" fill="#fff"/><circle cx="7" cy="7" r="7" transform="translate(74 55)" fill="url(#a)"/><circle data-name="Oval" cx="7" cy="7" r="7" transform="translate(92 55)" fill="url(#a)"/><circle data-name="Oval" cx="7" cy="7" r="7" transform="translate(110 55)" fill="url(#a)"/><circle data-name="Oval" cx="6.5" cy="6.5" r="6.5" transform="translate(75 55)" fill="url(#b)"/><circle data-name="Oval" cx="6.5" cy="6.5" r="6.5" transform="translate(93 55)" fill="#ff8127" opacity=".5"/><circle data-name="Oval" cx="6.5" cy="6.5" r="6.5" transform="translate(111 55)" fill="#ff8127" opacity=".2"/></svg>