<svg id="Livello_2" data-name="Livello 2" xmlns="http://www.w3.org/2000/svg" viewBox="0 0 44.58 36.22"><defs><style>.cls-1{fill:#664b87;}</style></defs><path class="cls-1" d="M14.68,34.75H9.1a1.39,1.39,0,0,0-1.39,1.39v5.58A1.39,1.39,0,0,0,9.1,43.11h5.58a1.39,1.39,0,0,0,1.39-1.39V36.14A1.39,1.39,0,0,0,14.68,34.75Zm0-27.86H9.1A1.39,1.39,0,0,0,7.71,8.28v5.58A1.39,1.39,0,0,0,9.1,15.25h5.58a1.39,1.39,0,0,0,1.39-1.39V8.28A1.39,1.39,0,0,0,14.68,6.89Zm0,13.93H9.1a1.39,1.39,0,0,0-1.39,1.39v5.58A1.39,1.39,0,0,0,9.1,29.18h5.58a1.39,1.39,0,0,0,1.39-1.39V22.21A1.39,1.39,0,0,0,14.68,20.82ZM50.9,36.14H23a1.4,1.4,0,0,0-1.39,1.4v2.78A1.4,1.4,0,0,0,23,41.72H50.9a1.4,1.4,0,0,0,1.39-1.4V37.54A1.4,1.4,0,0,0,50.9,36.14Zm0-27.86H23a1.4,1.4,0,0,0-1.39,1.4v2.78A1.4,1.4,0,0,0,23,13.86H50.9a1.4,1.4,0,0,0,1.39-1.4V9.68A1.4,1.4,0,0,0,50.9,8.28Zm0,13.93H23a1.4,1.4,0,0,0-1.39,1.4v2.78A1.4,1.4,0,0,0,23,27.79H50.9a1.4,1.4,0,0,0,1.39-1.4V23.61A1.4,1.4,0,0,0,50.9,22.21Z" transform="translate(-7.71 -6.89)"/></svg>