<svg id="Livello_8" data-name="Livello 8" xmlns="http://www.w3.org/2000/svg" viewBox="0 0 60 50"><defs><style>.cls-1{fill:#664c85;}.cls-2{fill:none;}</style></defs><path id="path" class="cls-1" d="M29.91,13.1a2.72,2.72,0,0,0-1.67.78L15.82,26.31a1.38,1.38,0,0,0-.45.94,1.51,1.51,0,0,0,.45.9L17.64,30a1.47,1.47,0,0,0,1,.46v7.78a2.42,2.42,0,0,0,.57,1.7,2.45,2.45,0,0,0,1.7.58H27A1.29,1.29,0,0,0,28,40a1.34,1.34,0,0,0,.49-1V34.43h3V39A1.7,1.7,0,0,0,33,40.49h6.06a2,2,0,0,0,2.27-2.28V30.43a1.47,1.47,0,0,0,1-.46l1.82-1.82a1.51,1.51,0,0,0,.45-.9,1.38,1.38,0,0,0-.45-.94l-2.82-2.79V14.73A.75.75,0,0,0,40.6,14H35.3a.75.75,0,0,0-.76.75v2l-2.78-2.82a2.72,2.72,0,0,0-1.67-.78h-.18M30.67,15l4.09,4.09a.77.77,0,0,0,1.3-.55v-3h3.79v8.33a.89.89,0,0,0,.21.55l2.88,2.88-1.58,1.57-.66-.7L31,18.43a1.52,1.52,0,0,0-.88-.46h-.24a1.52,1.52,0,0,0-.88.46l-9.7,9.69-.66.7-1.58-1.57L29.33,15a.79.79,0,0,1,1.34,0h0M39.6,29.21l.25.25v8.75c0,.43-.09.58-.15.61s-.19.15-.61.15H33.15a.11.11,0,0,1-.12-.12V34.43a1.46,1.46,0,0,0-1.52-1.52h-3A1.46,1.46,0,0,0,27,34.43v4.42a.11.11,0,0,1-.12.12H20.91c-.42,0-.57-.09-.61-.15s-.15-.18-.15-.61V29.46l.25-.25L30,19.58l9.6,9.63"/><path class="cls-2" d="M36.3,25.9,30,19.58l-9.6,9.64-.25.24v8.75c0,.43.09.58.15.61s.19.15.61.15h5.94a.11.11,0,0,0,.12-.12V34.43a1.46,1.46,0,0,1,1.52-1.52h3A1.46,1.46,0,0,1,33,34.43v4.42a.11.11,0,0,0,.12.12h5.94c.42,0,.58-.09.61-.15s.15-.18.15-.61V34H38.32a1.8,1.8,0,0,1-2-2"/><path class="cls-2" d="M41.36,30.43v2.18h2.26a.15.15,0,0,0,.09,0s0-.08,0-.08V28.6L42.36,30A1.47,1.47,0,0,1,41.36,30.43Z"/><path class="cls-2" d="M36.06,15.49v3a.77.77,0,0,1-1.3.55L30.67,15a.79.79,0,0,0-1.34,0L17.06,27.25l1.58,1.57.66-.7L29,18.43a1.52,1.52,0,0,1,.88-.46h.24a1.52,1.52,0,0,1,.88.46l2.83,2.83,5.77-5.77Z"/><path class="cls-2" d="M45.54,14.27a1.42,1.42,0,0,1,.79-.4h.22a1.39,1.39,0,0,1,.78.4L56,22.93l.6.62L58,22.14l-2.57-2.57a.74.74,0,0,1-.19-.48V11.65H51.85v2.71a.69.69,0,0,1-1.17.48L47,11.19a.81.81,0,0,0-.59-.32.85.85,0,0,0-.6.32l-4.48,4.48v2.79Z"/><path class="cls-2" d="M44.18,26.31a1.38,1.38,0,0,1,.45.94v0a1.44,1.44,0,0,1,.46-.08h2.7a1.48,1.48,0,0,1,1,.38,1.43,1.43,0,0,1,.38,1V32.5s0,.06,0,.08a.13.13,0,0,0,.08,0h5.3c.38,0,.51-.08.54-.13s.14-.17.14-.55V24.12L55,23.9l-8.57-8.6-5.08,5.09v3.13Z"/><path class="cls-1" d="M59.09,21.31l-2.51-2.49V11a.67.67,0,0,0-.68-.67H51.17a.67.67,0,0,0-.68.67v1.76L48,10.22a2.43,2.43,0,0,0-1.49-.71h-.16a2.41,2.41,0,0,0-1.49.71L41,14.09a.73.73,0,0,1,.36.64v.94l4.48-4.48a.85.85,0,0,1,.6-.32.81.81,0,0,1,.59.32l3.65,3.65a.69.69,0,0,0,1.17-.48V11.65h3.38v7.44a.74.74,0,0,0,.19.48L58,22.14l-1.41,1.41-.6-.62-8.65-8.66a1.39,1.39,0,0,0-.78-.4h-.22a1.42,1.42,0,0,0-.79.4l-4.18,4.19v1.93l5.08-5.09L55,23.9l.22.22h0v7.81c0,.38-.08.52-.14.55s-.16.13-.54.13h-5.3a.13.13,0,0,1-.08,0s0-.08,0-.08V28.55a1.43,1.43,0,0,0-.38-1,1.48,1.48,0,0,0-1-.38h-2.7a1.44,1.44,0,0,0-.46.08,1.57,1.57,0,0,1-.45.87l-.45.45v3.9s0,.06,0,.08a.15.15,0,0,1-.09,0H41.36V34h2.37a1.13,1.13,0,0,0,.92-.43,1.2,1.2,0,0,0,.44-.92V28.55h2.7v4.06a1.22,1.22,0,0,0,.43.92,1.19,1.19,0,0,0,.92.43h5.41a2.16,2.16,0,0,0,1.52-.51,2.21,2.21,0,0,0,.51-1.52V25a1.32,1.32,0,0,0,.89-.4L59.09,23a1.36,1.36,0,0,0,.41-.82A1.18,1.18,0,0,0,59.09,21.31Z"/><polygon class="cls-1" points="39.85 19.97 41.36 18.46 41.36 15.67 39.85 17.19 39.85 19.97"/><path class="cls-1" d="M39.85,23.82a.89.89,0,0,0,.21.55l2.88,2.88-1.58,1.57-.66-.7-3.05-3v2.17l2,2,.25.24h0v3.15h1.51V30.43a1.47,1.47,0,0,0,1-.46l1.37-1.37v-.05a1.48,1.48,0,0,1,.38-1,1.51,1.51,0,0,1,.52-.3v0a1.38,1.38,0,0,0-.45-.94l-2.82-2.79V20.39l-1.51,1.52Z"/><rect class="cls-1" x="39.85" y="32.61" width="1.51" height="1.35"/><path class="cls-1" d="M43.73,28.55v.05l.45-.45a1.57,1.57,0,0,0,.45-.87,1.51,1.51,0,0,0-.52.3A1.48,1.48,0,0,0,43.73,28.55Z"/><polygon class="cls-1" points="39.85 21.91 41.36 20.39 41.36 18.46 39.85 19.97 39.85 21.91"/><path class="cls-1" d="M37.65,25.08l-3.82-3.82,0,0a1.22,1.22,0,0,0-.41.83,1.42,1.42,0,0,0,.41.82l1.62,1.62a1.35,1.35,0,0,0,.9.4v.92l1.35,1.35Z"/><path class="cls-1" d="M39.85,15.49v1.7l1.51-1.52v-.94a.73.73,0,0,0-.36-.64l-1.4,1.4Z"/><path class="cls-2" d="M22.35,19.09V11.65H19v2.71a.69.69,0,0,1-1.16.48l-3.65-3.65a.85.85,0,0,0-.6-.32.81.81,0,0,0-.59.32l-11,11,1.41,1.41.6-.62,8.65-8.66a1.39,1.39,0,0,1,.78-.4h.22a1.42,1.42,0,0,1,.79.4L21.15,21l1.4-1.39h0A.74.74,0,0,1,22.35,19.09Z"/><path class="cls-2" d="M39.6,29.22,30,19.58,23.7,25.9v6a2.16,2.16,0,0,1-.51,1.52,2.15,2.15,0,0,1-1.51.51H20.15v4.25c0,.43.09.58.15.61s.19.15.61.15h5.94a.11.11,0,0,0,.12-.12V34.43a1.46,1.46,0,0,1,1.52-1.52h3A1.46,1.46,0,0,1,33,34.43v4.42a.11.11,0,0,0,.12.12h5.94c.42,0,.58-.09.61-.15s.15-.18.15-.61V29.46Z"/><path class="cls-2" d="M22.22,32.48c.05,0,.13-.17.13-.55V27.25l-2,2-.25.24v3.15h1.53C22.05,32.61,22.19,32.53,22.22,32.48Z"/><path class="cls-2" d="M5,23.9l-.22.22v7.81c0,.38.08.52.14.55s.16.13.54.13h5.3a.13.13,0,0,0,.08,0s0-.08,0-.08V28.55a1.43,1.43,0,0,1,.38-1,1.48,1.48,0,0,1,1-.38h2.7a1.44,1.44,0,0,1,.46.08v0a1.38,1.38,0,0,1,.45-.94l4.36-4.37L13.56,15.3Z"/><path class="cls-2" d="M16.29,32.58a.15.15,0,0,0,.09,0h2.26V30.43a1.47,1.47,0,0,1-1-.46L16.27,28.6v3.9S16.27,32.56,16.29,32.58Z"/><polygon class="cls-2" points="23.7 23.55 25.11 22.14 23.64 20.67 22.25 22.06 23.11 22.93 23.7 23.55"/><path class="cls-2" d="M39.85,23.82V15.49H36.06v3a.77.77,0,0,1-1.3.55L30.67,15a.79.79,0,0,0-1.34,0L24.6,19.71l1.57,1.55L29,18.43a1.52,1.52,0,0,1,.88-.46h.24a1.52,1.52,0,0,1,.88.46l9.7,9.69.66.7,1.58-1.57-2.88-2.88A.89.89,0,0,1,39.85,23.82Z"/><path class="cls-2" d="M22.35,24.12l-.21-.22L21.27,23l-4.21,4.21,1.58,1.57.66-.7,3.05-3v-1Z"/><path class="cls-1" d="M16.38,32.61a.15.15,0,0,1-.09,0s0-.08,0-.08V28.6l-.45-.45a1.57,1.57,0,0,1-.45-.87,1.44,1.44,0,0,0-.46-.08h-2.7a1.48,1.48,0,0,0-1,.38,1.43,1.43,0,0,0-.38,1V32.5s0,.06,0,.08a.13.13,0,0,1-.08,0H5.45c-.38,0-.51-.08-.54-.13s-.14-.17-.14-.55V24.12L5,23.9l8.57-8.6,6.62,6.64,1-1-6.69-6.7a1.42,1.42,0,0,0-.79-.4h-.22a1.39,1.39,0,0,0-.78.4L4,22.93l-.6.62L2,22.14l11-11a.81.81,0,0,1,.59-.32.85.85,0,0,1,.6.32l3.65,3.65A.69.69,0,0,0,19,14.36V11.65h3.38v7.44a.74.74,0,0,0,.19.48h0l1.15-1.16V11A.66.66,0,0,0,23,10.3H18.3a.67.67,0,0,0-.68.67v1.76l-2.49-2.51a2.41,2.41,0,0,0-1.49-.71h-.16a2.43,2.43,0,0,0-1.49.71L.91,21.31a1.18,1.18,0,0,0-.41.83A1.36,1.36,0,0,0,.91,23l1.62,1.62a1.32,1.32,0,0,0,.89.4v7a2.21,2.21,0,0,0,.51,1.52A2.16,2.16,0,0,0,5.45,34h5.41a1.16,1.16,0,0,0,.92-.43,1.22,1.22,0,0,0,.43-.92V28.55h2.7v4.06a1.2,1.2,0,0,0,.44.92,1.17,1.17,0,0,0,.92.43h2.37V32.61Z"/><path class="cls-1" d="M44.18,26.31l-2.82-2.79V14.73A.75.75,0,0,0,40.6,14H35.3a.75.75,0,0,0-.76.75v2l-2.78-2.82a2.72,2.72,0,0,0-1.67-.78h-.18a2.72,2.72,0,0,0-1.67.78L23.7,18.42l-1.15,1.16L21.15,21l-1,1-4.36,4.37a1.38,1.38,0,0,0-.45.94v0a1.57,1.57,0,0,0,.45.87l.45.45L17.64,30a1.47,1.47,0,0,0,1,.46v7.78a2.42,2.42,0,0,0,.57,1.7,2.45,2.45,0,0,0,1.7.58H27A1.29,1.29,0,0,0,28,40a1.34,1.34,0,0,0,.49-1V34.43h3V39A1.7,1.7,0,0,0,33,40.49h6.06a2,2,0,0,0,2.27-2.28V30.43a1.47,1.47,0,0,0,1-.46l1.82-1.82a1.51,1.51,0,0,0,.45-.9A1.38,1.38,0,0,0,44.18,26.31Zm-4.33,3.27v8.63c0,.43-.09.58-.15.61s-.19.15-.61.15H33.15a.11.11,0,0,1-.12-.12V34.43a1.46,1.46,0,0,0-1.52-1.52h-3A1.46,1.46,0,0,0,27,34.43v4.42a.11.11,0,0,1-.12.12H20.91c-.42,0-.57-.09-.61-.15s-.15-.18-.15-.61V29.46l.25-.24,2-2L23.7,25.9,30,19.58l9.6,9.64.25.24Zm1.51-.76-.66-.7L31,18.43a1.52,1.52,0,0,0-.88-.46h-.24a1.52,1.52,0,0,0-.88.46l-2.83,2.83-3.82,3.82-3.05,3-.66.7-1.58-1.57L21.27,23l1-1,1.4-1.39,1-1L29.33,15a.79.79,0,0,1,1.34,0l4.09,4.09a.77.77,0,0,0,1.3-.55v-3h3.79v8.33a.89.89,0,0,0,.21.55l2.88,2.88Z"/></svg>