<svg id="Livello_5" data-name="Livello 5" xmlns="http://www.w3.org/2000/svg" viewBox="0 0 51.25 39.06"><defs><style>.cls-1{fill:#664b87;}</style></defs><path class="cls-1" d="M54.92,26.73,37.83,43.81a2.44,2.44,0,0,1-4.17-1.73V32.32H19.83a2.44,2.44,0,0,1-2.44-2.44V20.12a2.44,2.44,0,0,1,2.44-2.44H33.66V7.91a2.44,2.44,0,0,1,4.17-1.72L54.92,23.27A2.48,2.48,0,0,1,54.92,26.73ZM23.9,43.3V39.24A1.22,1.22,0,0,0,22.68,38H14.14a3.26,3.26,0,0,1-3.26-3.26V15.24A3.26,3.26,0,0,1,14.14,12h8.54a1.22,1.22,0,0,0,1.22-1.22V6.69a1.22,1.22,0,0,0-1.22-1.22H14.14a9.78,9.78,0,0,0-9.77,9.77V34.76a9.77,9.77,0,0,0,9.77,9.76h8.54A1.22,1.22,0,0,0,23.9,43.3Z" transform="translate(-4.37 -5.47)"/></svg>