<svg id="Livello_1" data-name="Livello 1" xmlns="http://www.w3.org/2000/svg" width="205.3661" height="37.8405" viewBox="0 0 205.3661 37.8405">
  <defs>
    <style>
      .cls-1 {
        fill: #0071bc;
      }
    </style>
  </defs>
  <title>logoBB</title>
  <g>
    <path class="cls-1" d="M74.6753,13.5754a8.0978,8.0978,0,0,1,6.747,3.011q2.376,3.0121,2.377,8.4081,0,5.4794-2.417,8.469a8.1449,8.1449,0,0,1-6.707,2.991,9.4594,9.4594,0,0,1-3.987-.8049,6.97,6.97,0,0,1-2.86-2.3971h-0.282q-0.624,2.4166-.746,2.8h-2.598V4.7144h3.626v7.6119q0,2.2771-.202,4.552h0.202a7.6984,7.6984,0,0,1,6.847-3.303m-0.604,3.001q-3.3435,0-4.793,1.8931t-1.45,6.405v0.161q0,4.5315,1.48,6.475t4.844,1.943a4.9746,4.9746,0,0,0,4.44-2.1851,11.3559,11.3559,0,0,0,1.46-6.314q0-4.188-1.47-6.283a5.1356,5.1356,0,0,0-4.511-2.0951" transform="translate(-6.0669 -3.3298)"/>
    <path class="cls-1" d="M107.2664,24.9548q0,5.4181-2.739,8.458a9.67,9.67,0,0,1-7.573,3.042,10.07,10.07,0,0,1-5.317-1.4,9.1748,9.1748,0,0,1-3.565-4.0181,13.9853,13.9853,0,0,1-1.248-6.082q0-5.3969,2.699-8.4089a9.6433,9.6433,0,0,1,7.572-3.01,9.4613,9.4613,0,0,1,7.422,3.071q2.75,3.07,2.749,8.3479m-16.696,0q0,4.1686,1.642,6.3341a6.4659,6.4659,0,0,0,9.656,0q1.6515-2.1645,1.652-6.3341t-1.661-6.2739a5.8251,5.8251,0,0,0-4.864-2.104q-6.4245,0-6.425,8.3779" transform="translate(-6.0669 -3.3298)"/>
    <path class="cls-1" d="M130.6941,24.9548q0,5.4181-2.739,8.458a9.6716,9.6716,0,0,1-7.573,3.042,10.0675,10.0675,0,0,1-5.317-1.4,9.1748,9.1748,0,0,1-3.565-4.0181,13.9708,13.9708,0,0,1-1.248-6.082q0-5.3969,2.699-8.4089a9.6418,9.6418,0,0,1,7.572-3.01,9.4613,9.4613,0,0,1,7.422,3.071q2.748,3.07,2.749,8.3479m-16.696,0q0,4.1686,1.641,6.3341a6.467,6.467,0,0,0,9.657,0q1.6515-2.1645,1.652-6.3341t-1.662-6.2739a5.8232,5.8232,0,0,0-4.863-2.104q-6.4245,0-6.425,8.3779" transform="translate(-6.0669 -3.3298)"/>
    <rect class="cls-1" x="128.8403" y="1.3846" width="3.625" height="31.338"/>
    <path class="cls-1" d="M154.4877,13.5754a8.0965,8.0965,0,0,1,6.747,3.011q2.376,3.0121,2.377,8.4081,0,5.4794-2.417,8.469a8.1449,8.1449,0,0,1-6.707,2.991,9.4673,9.4673,0,0,1-3.988-.8049,6.9824,6.9824,0,0,1-2.86-2.3971h-0.281q-0.6255,2.4166-.746,2.8h-2.598V4.7144h3.625v7.6119q0,2.2771-.201,4.552h0.201a7.7,7.7,0,0,1,6.848-3.303m-0.604,3.001q-3.3435,0-4.793,1.8931t-1.451,6.405v0.161q0,4.5315,1.481,6.475t4.844,1.943a4.9758,4.9758,0,0,0,4.44-2.1851,11.3559,11.3559,0,0,0,1.46-6.314q0-4.188-1.47-6.283a5.1356,5.1356,0,0,0-4.511-2.0951" transform="translate(-6.0669 -3.3298)"/>
    <path class="cls-1" d="M182.93,36.052V21.913a5.8141,5.8141,0,0,0-1.198-4.017,4.84,4.84,0,0,0-3.756-1.32q-3.4035,0-4.945,1.884-1.5405,1.8825-1.54,6.132v11.46h-3.625V13.9381h2.92l0.543,3.021h0.202a6.825,6.825,0,0,1,2.88-2.5281,9.2708,9.2708,0,0,1,4.088-.896q4.068,0,6.042,1.974t1.974,6.1431v14.4H182.93Z" transform="translate(-6.0669 -3.3298)"/>
    <path class="cls-1" d="M202.309,13.5754a8.0965,8.0965,0,0,1,6.747,3.011q2.3775,3.0121,2.377,8.4081,0,5.4794-2.417,8.469a8.1449,8.1449,0,0,1-6.707,2.991,9.4594,9.4594,0,0,1-3.987-.8049,6.97,6.97,0,0,1-2.86-2.3971H195.18q-0.624,2.4166-.746,2.8h-2.598V4.7144h3.626v7.6119q0,2.2771-.202,4.552h0.202a7.6973,7.6973,0,0,1,6.847-3.303m-0.604,3.001q-3.3435,0-4.793,1.8931t-1.45,6.405v0.161q0,4.5315,1.48,6.475t4.844,1.943a4.9735,4.9735,0,0,0,4.44-2.1851,11.3559,11.3559,0,0,0,1.46-6.314q0-4.188-1.47-6.283a5.1356,5.1356,0,0,0-4.511-2.0951" transform="translate(-6.0669 -3.3298)"/>
    <path class="cls-1" d="M43.1663,23.2342a13.9784,13.9784,0,0,0-5.8907-7.74,14.0379,14.0379,0,0,0-24.16-7.7184c-4.274,4.562-6.344,19.55-7.036,25.783a1.9478,1.9478,0,0,0,1.5778,2.13,2.2114,2.2114,0,0,0,.2623.1293c4.914,1.76,15.78,5.3519,22.593,5.3519a11.554,11.554,0,0,0,3.301-.402A14.068,14.068,0,0,0,43.1663,23.2342ZM14.4833,9.0578a12.1054,12.1054,0,0,1,8.49-3.8459c0.136-.004.271-0.0061,0.407-0.0061A12.1506,12.1506,0,0,1,35.16,14.3764a13.9874,13.9874,0,0,0-9.5272-.4951C20.4117,15.4692,12.6174,24.8757,8.35,30.4633,9.5444,21.5634,11.6606,12.0717,14.4833,9.0578Zm18.784,29.9175c-5.509,1.673-20.311-3.344-24.717-4.922a0.3313,0.3313,0,0,1-.211-0.222,0.3348,0.3348,0,0,1,.052-0.303c2.78-3.764,12.278-16.177,17.786-17.854A12.1779,12.1779,0,0,1,33.2673,38.9753Z" transform="translate(-6.0669 -3.3298)"/>
  </g>
</svg>
