<svg id="Livello_3" data-name="Livello 3" xmlns="http://www.w3.org/2000/svg" viewBox="0 0 48.52 36.39"><defs><style>.cls-1{fill:#664b87;}</style></defs><path class="cls-1" d="M49.71,6.81H10.29a4.55,4.55,0,0,0-4.55,4.54v27.3a4.55,4.55,0,0,0,4.55,4.54H49.71a4.55,4.55,0,0,0,4.55-4.54V11.35A4.55,4.55,0,0,0,49.71,6.81Zm0,4.54v3.87C47.59,17,44.2,19.64,37,25.31c-1.6,1.26-4.76,4.27-7,4.24s-5.36-3-7-4.24C15.8,19.64,12.41,17,10.29,15.22V11.35ZM10.29,38.65V21.06c2.17,1.73,5.25,4.15,9.94,7.83,2.07,1.63,5.7,5.23,9.77,5.21s7.63-3.53,9.77-5.21c4.69-3.67,7.77-6.1,9.94-7.83V38.65Z" transform="translate(-5.74 -6.81)"/></svg>