<svg id="Livello_10" data-name="Livello 10" xmlns="http://www.w3.org/2000/svg" viewBox="0 0 60 50"><defs><style>.cls-1{fill:#664c85;}</style></defs><path id="path" class="cls-1" d="M7.33,19.93V41.29H52.67V19.93L36.46,31.15h0c-2.27,1.47-4.31,2.38-6.46,2.38s-4.19-.91-6.46-2.38h0L7.33,19.93m0-11.22v7.76l17.8,12.3A8.64,8.64,0,0,0,30,30.69a8.64,8.64,0,0,0,4.87-1.92l17.8-12.3V8.71H7.33m0-2.83H52.67A2.87,2.87,0,0,1,55.5,8.71V41.29a2.87,2.87,0,0,1-2.83,2.83H7.33A2.87,2.87,0,0,1,4.5,41.29V8.71A2.87,2.87,0,0,1,7.33,5.88h0"/></svg>