<svg id="Livello_1" data-name="Livello 1" xmlns="http://www.w3.org/2000/svg" viewBox="0 0 143.63 26.46"><defs><style>.cls-1{fill:#664b87;}</style></defs><path class="cls-1" d="M48,7.17a5.67,5.67,0,0,1,4.72,2.1,9.28,9.28,0,0,1,1.67,5.88,9.16,9.16,0,0,1-1.7,5.92A5.68,5.68,0,0,1,48,23.17a6.48,6.48,0,0,1-2.78-.57,4.78,4.78,0,0,1-2-1.67H43c-.29,1.12-.47,1.78-.52,2H40.66V1H43.2V6.29c0,1.06-.05,2.12-.15,3.19h.15A5.37,5.37,0,0,1,48,7.17m-.42,2.09a4,4,0,0,0-3.35,1.33c-.68.88-1,2.37-1,4.48v.11a7.64,7.64,0,0,0,1,4.53,4,4,0,0,0,3.39,1.36,3.47,3.47,0,0,0,3.1-1.53,8,8,0,0,0,1-4.42,7.72,7.72,0,0,0-1-4.39,3.6,3.6,0,0,0-3.16-1.47"/><path class="cls-1" d="M70.78,15.12A8.52,8.52,0,0,1,68.86,21a6.76,6.76,0,0,1-5.29,2.13,7.07,7.07,0,0,1-3.72-1,6.47,6.47,0,0,1-2.5-2.81,9.82,9.82,0,0,1-.87-4.26,8.52,8.52,0,0,1,1.89-5.88,6.75,6.75,0,0,1,5.29-2.1,6.59,6.59,0,0,1,5.19,2.15,8.37,8.37,0,0,1,1.93,5.83m-11.68,0a7.21,7.21,0,0,0,1.15,4.43,4.51,4.51,0,0,0,6.75,0,7.2,7.2,0,0,0,1.16-4.43A7,7,0,0,0,67,10.74a4.07,4.07,0,0,0-3.41-1.48c-3,0-4.49,2-4.49,5.86"/><path class="cls-1" d="M87.16,15.12A8.56,8.56,0,0,1,85.25,21,6.78,6.78,0,0,1,80,23.17a7.07,7.07,0,0,1-3.72-1,6.39,6.39,0,0,1-2.49-2.81,9.82,9.82,0,0,1-.87-4.26,8.51,8.51,0,0,1,1.88-5.88,6.77,6.77,0,0,1,5.3-2.1,6.59,6.59,0,0,1,5.19,2.15,8.42,8.42,0,0,1,1.92,5.83m-11.67,0a7.27,7.27,0,0,0,1.14,4.43,4.52,4.52,0,0,0,6.76,0,7.21,7.21,0,0,0,1.15-4.43,6.94,6.94,0,0,0-1.16-4.38A4,4,0,0,0,80,9.26c-3,0-4.49,2-4.49,5.86"/><rect class="cls-1" x="90.11" y="0.97" width="2.54" height="21.92"/><path class="cls-1" d="M103.8,7.17a5.67,5.67,0,0,1,4.72,2.1,9.28,9.28,0,0,1,1.66,5.88,9.16,9.16,0,0,1-1.69,5.92,5.68,5.68,0,0,1-4.69,2.1A6.56,6.56,0,0,1,101,22.6a4.9,4.9,0,0,1-2-1.67h-.19c-.29,1.12-.47,1.78-.52,2H96.48V1H99V6.29c0,1.06,0,2.12-.14,3.19H99a5.4,5.4,0,0,1,4.79-2.31m-.42,2.09A4,4,0,0,0,100,10.59c-.68.88-1,2.37-1,4.48v.11a7.63,7.63,0,0,0,1,4.53,4,4,0,0,0,3.39,1.36,3.47,3.47,0,0,0,3.1-1.53,8,8,0,0,0,1-4.42,7.72,7.72,0,0,0-1-4.39,3.6,3.6,0,0,0-3.16-1.47"/><path class="cls-1" d="M123.7,22.89V13a4.05,4.05,0,0,0-.84-2.81,3.38,3.38,0,0,0-2.63-.93,4.21,4.21,0,0,0-3.46,1.32,6.79,6.79,0,0,0-1.07,4.29v8h-2.54V7.42h2l.38,2.11h.14a4.78,4.78,0,0,1,2-1.77,6.55,6.55,0,0,1,2.86-.62,5.75,5.75,0,0,1,4.22,1.38,5.85,5.85,0,0,1,1.38,4.29V22.89Z"/><path class="cls-1" d="M137.25,7.17A5.67,5.67,0,0,1,142,9.27a9.28,9.28,0,0,1,1.66,5.88,9.16,9.16,0,0,1-1.69,5.92,5.69,5.69,0,0,1-4.69,2.1,6.56,6.56,0,0,1-2.79-.57,4.84,4.84,0,0,1-2-1.67h-.2c-.29,1.12-.46,1.78-.52,2h-1.82V1h2.54V6.29c0,1.06-.05,2.12-.14,3.19h.14a5.38,5.38,0,0,1,4.79-2.31m-.42,2.09a4,4,0,0,0-3.36,1.33,7.57,7.57,0,0,0-1,4.48v.11a7.63,7.63,0,0,0,1,4.53,4,4,0,0,0,3.38,1.36A3.48,3.48,0,0,0,140,19.54a8,8,0,0,0,1-4.42,7.63,7.63,0,0,0-1-4.39,3.58,3.58,0,0,0-3.15-1.47"/><path class="cls-1" d="M26,13.92a9.79,9.79,0,0,0-4.12-5.41,9.75,9.75,0,0,0-3-5.85,9.83,9.83,0,0,0-13.89.45C1.94,6.3.49,16.78,0,21.14a1.35,1.35,0,0,0,.42,1.15,1.3,1.3,0,0,0,.68.34,1.11,1.11,0,0,0,.19.09c3.43,1.23,11,3.74,15.8,3.74a8,8,0,0,0,2.31-.28A9.84,9.84,0,0,0,26,13.92M5.89,4a8.42,8.42,0,0,1,5.93-2.69h.29a8.51,8.51,0,0,1,8.24,6.42,9.82,9.82,0,0,0-6.67-.35C10,8.49,4.58,15.07,1.6,19,2.43,12.75,3.91,6.11,5.89,4M19,24.93c-3.85,1.17-14.2-2.34-17.28-3.44a.23.23,0,0,1-.15-.16.22.22,0,0,1,0-.21C3.57,18.49,10.21,9.81,14.06,8.63a8.52,8.52,0,0,1,5,16.3"/></svg>