<svg data-name="undraw_best_place_r685 (1)" xmlns="http://www.w3.org/2000/svg" width="295" height="135"><defs><linearGradient id="a" y1=".5" x2="1" y2=".5" gradientUnits="objectBoundingBox"><stop offset="0" stop-color="#b56da8"/><stop offset="1" stop-color="#8e5082"/></linearGradient><linearGradient id="b" x1=".235" y1=".5" x2=".758" y2="1.318" gradientUnits="objectBoundingBox"><stop offset="0" stop-color="#fa7009"/><stop offset="1" stop-color="#ffbc0d"/></linearGradient></defs><path d="M37.507 133l-.507-.114a115.388 115.388 0 0 1 225-.307l-.506.115a114.18 114.18 0 0 0-111.959-89.175C96.286 43.519 49.172 81.151 37.507 133z" fill="#3f3d56"/><circle cx="14" cy="14" r="14" transform="translate(219 43)" fill="#e3635f"/><path fill="#3f3d56" d="M227 113h1v21h-1z"/><path data-name="Path" d="M233 115.977c.032 7.179-4.941 13.023-4.941 13.023s-5.026-5.8-5.059-12.977S227.941 103 227.941 103s5.026 5.8 5.059 12.977z" fill="#6c63ff"/><path data-name="Path" d="M10 12.977C10.032 20.156 5.059 26 5.059 26S.033 20.2 0 13.023 4.941 0 4.941 0 9.967 5.8 10 12.977z" transform="translate(223 103)" fill="url(#a)"/><circle data-name="Oval" cx="8" cy="8" r="8" transform="translate(122 57)" opacity=".2" fill="url(#a)"/><circle data-name="Oval" cx="5.5" cy="5.5" r="5.5" transform="translate(109 63)" opacity=".2" fill="url(#a)"/><circle data-name="Oval" cx="5.5" cy="5.5" r="5.5" transform="translate(49 79)" opacity=".2" fill="url(#a)"/><circle data-name="Oval" cx="8" cy="8" r="8" transform="translate(214 56)" opacity=".2" fill="url(#a)"/><path data-name="Path" d="M14.155 132.317A5.529 5.529 0 0 0 16.431 135a4.724 4.724 0 0 0 .413-3.317A5.528 5.528 0 0 0 14.569 129a4.724 4.724 0 0 0-.414 3.317z" fill="#ffbc0d"/><path data-name="Path" d="M15.761 131.2A4.985 4.985 0 0 1 17 134a4.709 4.709 0 0 1-2.761-1.2A4.985 4.985 0 0 1 13 130a4.709 4.709 0 0 1 2.761 1.2zM173.155 132.317a5.528 5.528 0 0 0 2.276 2.683 4.724 4.724 0 0 0 .413-3.317 5.528 5.528 0 0 0-2.275-2.683 4.724 4.724 0 0 0-.414 3.317z" fill="#ffbc0d"/><path data-name="Path" d="M173.761 131.2A4.985 4.985 0 0 1 175 134a4.709 4.709 0 0 1-2.761-1.2A4.985 4.985 0 0 1 171 130a4.709 4.709 0 0 1 2.761 1.2z" fill="#ffbc0d"/><path data-name="Path" d="M17.08 119.61L16 117.781 26.08 109H52v2.561L42.64 121.8l-10.8 2.2-14.76-4.39z" fill="#3f3d56"/><path data-name="Path" d="M56.507 114.685V109h-3.428v1.793L52 109.567l-8.727 8.72-1.455 1.453L40 127.007 43.273 135H60v-16.349l-3.493-3.966z" fill="#ccc"/><path data-name="Rectangle" fill="#f2f2f2" d="M17 118h27v17H17z"/><path data-name="Rectangle" fill="#ffbc0d" d="M34 123h6v5h-6z"/><path data-name="Rectangle" fill="#ccc" d="M27 123h5v11h-5z"/><path data-name="Path" d="M21 125v-2h-2v2h2zM20.833 126H19v2h2v-2z" fill="#3f3d56"/><path data-name="Rectangle" fill="#3f3d56" d="M23 123h2v2h-2zM23 126h2v2h-2z"/><path data-name="Path" d="M51 125v-2h-2v2h2zM50.833 126H49v2h2v-2z" fill="#3f3d56"/><path data-name="Rectangle" fill="#3f3d56" d="M53 123h2v2h-2zM53 126h2v2h-2z"/><path data-name="Path" d="M121.08 119.61l-1.08-1.829L130.08 109H156v2.561l-9.36 10.239-10.8 2.2-14.76-4.39z" fill="#3f3d56"/><path data-name="Path" d="M160.507 114.685V109h-3.428v1.793L156 109.567l-8.727 8.72-1.455 1.453-1.818 7.267 3.273 7.993H164v-16.349l-3.493-3.966z" fill="#ccc"/><path data-name="Rectangle" fill="#f2f2f2" d="M120 118h27v17h-27z"/><path data-name="Rectangle" fill="#ffbc0d" d="M138 123h6v5h-6z"/><path data-name="Rectangle" fill="#ccc" d="M131 123h5v11h-5z"/><path data-name="Path" d="M125 125v-2h-2v2h2zM124.833 126H123v2h2v-2z" fill="#3f3d56"/><path data-name="Rectangle" fill="#3f3d56" d="M126 123h2v2h-2zM126 126h2v2h-2z"/><path data-name="Path" d="M155 125v-2h-2v2h2zM154.833 126H153v2h2v-2z" fill="#3f3d56"/><path data-name="Rectangle" fill="#3f3d56" d="M157 123h2v2h-2zM157 126h2v2h-2z"/><path data-name="Path" d="M72.768 89.4L71 87.962 80.9 79H106v7.887L89.737 98l-16.969-8.6z" fill="#3f3d56"/><path data-name="Path" d="M111.049 84.009v-4.831h-3.369v1.183L106.423 79 98.2 87.929l-3.213 2.143L90 126.484 97.521 134H115V88.286l-3.951-4.277z" fill="#ccc"/><path data-name="Rectangle" fill="#f2f2f2" d="M71 88h27v46H71z"/><path data-name="Rectangle" fill="#ccc" d="M82 123h5v11h-5z"/><path data-name="Path" d="M76 126v-2h-2v2h2zM75.833 128H74v2h2v-2z" fill="#3f3d56"/><path data-name="Rectangle" fill="#3f3d56" d="M78 124h2v2h-2zM78 128h2v2h-2z"/><path data-name="Path" d="M91 126v-2h-2v2h2zM90.833 128H89v2h2v-2z" fill="#3f3d56"/><path data-name="Rectangle" fill="#3f3d56" d="M92 124h2v2h-2zM92 128h2v2h-2z"/><path data-name="Path" d="M106 91v-2h-2v2h2zM105.833 92H104v2h2v-2z" fill="#3f3d56"/><path data-name="Rectangle" fill="#3f3d56" d="M107 89h2v2h-2zM107 92h2v2h-2z"/><path data-name="Path" d="M106 101v-2h-2v2h2zM105.833 102H104v2h2v-2z" fill="#3f3d56"/><path data-name="Rectangle" fill="#3f3d56" d="M107 99h2v2h-2zM107 102h2v2h-2z"/><path data-name="Path" d="M106 111v-2h-2v2h2zM105.833 112H104v2h2v-2z" fill="#3f3d56"/><path data-name="Rectangle" fill="#3f3d56" d="M107 109h2v2h-2zM107 112h2v2h-2z"/><path data-name="Path" d="M106 121v-2h-2v2h2zM105.833 122H104v2h2v-2z" fill="#3f3d56"/><path data-name="Rectangle" fill="#3f3d56" d="M107 119h2v2h-2zM107 122h2v2h-2zM74 91h21v4H74zM74 99h21v4H74zM74 108h21v4H74zM74 116h21v4H74z"/><path data-name="Path" d="M177.768 89.4L176 87.962 185.9 79H211v7.887L194.737 98l-16.969-8.6z" fill="#3f3d56"/><path data-name="Path" d="M216.049 84.009v-4.831h-3.369v1.183L211.423 79l-8.223 8.929-3.213 2.143L195 126.484l7.521 7.516H220V88.286l-3.951-4.277z" fill="#ccc"/><path data-name="Rectangle" fill="#f2f2f2" d="M176 88h27v46h-27z"/><path data-name="Rectangle" fill="#ccc" d="M186 123h5v11h-5z"/><path data-name="Path" d="M181 126v-2h-2v2h2zM180.833 128H179v2h2v-2z" fill="#3f3d56"/><path data-name="Rectangle" fill="#3f3d56" d="M182 124h2v2h-2zM182 128h2v2h-2z"/><path data-name="Path" d="M195 126v-2h-2v2h2zM194.833 128H193v2h2v-2z" fill="#3f3d56"/><path data-name="Rectangle" fill="#3f3d56" d="M197 124h2v2h-2zM197 128h2v2h-2z"/><path data-name="Path" d="M210 91v-2h-2v2h2zM209.833 92H208v2h2v-2z" fill="#3f3d56"/><path data-name="Rectangle" fill="#3f3d56" d="M212 89h2v2h-2zM212 92h2v2h-2z"/><path data-name="Path" d="M210 101v-2h-2v2h2zM209.833 102H208v2h2v-2z" fill="#3f3d56"/><path data-name="Rectangle" fill="#3f3d56" d="M212 99h2v2h-2zM212 102h2v2h-2z"/><path data-name="Path" d="M210 111v-2h-2v2h2zM209.833 112H208v2h2v-2z" fill="#3f3d56"/><path data-name="Rectangle" fill="#3f3d56" d="M212 109h2v2h-2zM212 112h2v2h-2z"/><path data-name="Path" d="M210 121v-2h-2v2h2zM209.833 122H208v2h2v-2z" fill="#3f3d56"/><path data-name="Rectangle" fill="#3f3d56" d="M212 119h2v2h-2zM212 122h2v2h-2zM178 91h21v4h-21zM178 99h21v4h-21z"/><path data-name="Rectangle" fill="#ffbc0d" d="M178 108h21v4h-21z"/><path data-name="Rectangle" fill="#3f3d56" d="M178 116h21v4h-21z"/><path data-name="Path" d="M234.768 89.4L233 87.962 242.9 79H268v7.887L251.737 98l-16.969-8.6z" fill="#3f3d56"/><path data-name="Path" d="M273.049 84.009v-4.831h-3.369v1.183L268.423 79l-8.223 8.929-3.213 2.143L252 126.484l7.521 7.516H277V88.286l-3.951-4.277z" fill="#ccc"/><path data-name="Rectangle" fill="#f2f2f2" d="M233 88h27v46h-27z"/><path data-name="Rectangle" fill="#ccc" d="M243 123h5v11h-5z"/><path data-name="Path" d="M238 126v-2h-2v2h2zM237.833 128H236v2h2v-2z" fill="#3f3d56"/><path data-name="Rectangle" fill="#3f3d56" d="M240 124h2v2h-2zM240 128h2v2h-2z"/><path data-name="Path" d="M253 126v-2h-2v2h2zM252.833 128H251v2h2v-2z" fill="#3f3d56"/><path data-name="Rectangle" fill="#3f3d56" d="M254 124h2v2h-2zM254 128h2v2h-2z"/><path data-name="Path" d="M268 91v-2h-2v2h2zM267.833 92H266v2h2v-2z" fill="#3f3d56"/><path data-name="Rectangle" fill="#3f3d56" d="M269 89h2v2h-2zM269 92h2v2h-2z"/><path data-name="Path" d="M268 101v-2h-2v2h2zM267.833 102H266v2h2v-2z" fill="#3f3d56"/><path data-name="Rectangle" fill="#3f3d56" d="M269 99h2v2h-2zM269 102h2v2h-2z"/><path data-name="Path" d="M268 111v-2h-2v2h2zM267.833 112H266v2h2v-2z" fill="#3f3d56"/><path data-name="Rectangle" fill="#3f3d56" d="M269 109h2v2h-2zM269 112h2v2h-2z"/><path data-name="Path" d="M268 121v-2h-2v2h2zM267.833 122H266v2h2v-2z" fill="#3f3d56"/><path data-name="Rectangle" fill="#3f3d56" d="M269 119h2v2h-2zM269 122h2v2h-2z"/><path data-name="Rectangle" fill="#ffbc0d" d="M236 91h21v4h-21z"/><path data-name="Rectangle" fill="#3f3d56" d="M236 99h21v4h-21zM236 108h21v4h-21zM236 116h21v4h-21zM0 134h295v1H0zM65 113h1v21h-1z"/><path data-name="Path" d="M10 12.977C10.032 20.156 5.059 26 5.059 26S.033 20.2 0 13.023 4.941 0 4.941 0 9.967 5.8 10 12.977z" transform="translate(61 103)" fill="url(#a)"/><path data-name="Rectangle" fill="#3f3d56" d="M117 113h1v21h-1z"/><path data-name="Path" d="M10 12.977C10.032 20.156 5.059 26 5.059 26S.033 20.2 0 13.023 4.941 0 4.941 0 9.967 5.8 10 12.977z" transform="translate(113 103)" fill="url(#a)"/><path data-name="Rectangle" fill="#3f3d56" d="M221 113h1v21h-1z"/><path data-name="Path" d="M10 12.977C10.032 20.156 5.059 26 5.059 26S.033 20.2 0 13.023 4.941 0 4.941 0 9.967 5.8 10 12.977z" transform="translate(216 103)" fill="url(#a)"/><ellipse data-name="Oval" cx="10" cy="2" rx="10" ry="2" transform="translate(142 41)" fill="url(#b)"/><path data-name="Path" d="M23 11.562C23 17.948 11.5 36 11.5 36S0 17.948 0 11.562a11.5 11.5 0 1 1 23 0z" transform="translate(141)" fill="url(#b)"/><circle data-name="Oval" cx="6.5" cy="6.5" r="6.5" transform="translate(146 5)" fill="#f2f2f2"/></svg>