<svg xmlns="http://www.w3.org/2000/svg" xmlns:xlink="http://www.w3.org/1999/xlink" width="135" height="122"><defs><linearGradient id="a" x1=".45" y1=".972" x2=".55" y2=".028" gradientUnits="objectBoundingBox"><stop offset="0" stop-color="gray" stop-opacity=".251"/><stop offset=".54" stop-color="gray" stop-opacity=".122"/><stop offset="1" stop-color="gray" stop-opacity=".102"/></linearGradient><linearGradient id="b" x1=".604" y1=".938" x2=".396" y2=".062" xlink:href="#a"/><linearGradient id="c" x1=".5" y1="1" x2=".5" xlink:href="#a"/><linearGradient id="d" x1=".532" y1=".992" x2=".481" y2="-.012" gradientUnits="objectBoundingBox"><stop offset="0" stop-opacity=".122"/><stop offset=".55" stop-opacity=".09"/><stop offset="1" stop-opacity=".02"/></linearGradient><linearGradient id="e" x1=".235" y1=".5" x2=".758" y2="1.318" gradientUnits="objectBoundingBox"><stop offset="0" stop-color="#fa7009"/><stop offset="1" stop-color="#ffbc0d"/></linearGradient><linearGradient id="f" x1=".5" y1="1" x2=".5" xlink:href="#a"/><linearGradient id="g" y1=".5" x2="1" y2=".5" gradientUnits="objectBoundingBox"><stop offset="0" stop-color="#b56da8"/><stop offset="1" stop-color="#8e5082"/></linearGradient></defs><path d="M77.463 112L0 105.646 8.537 0 86 6.354 77.463 112z" transform="translate(49 10)" fill="url(#a)"/><path data-name="Path" d="M125.661 120L50 113.814 58.339 11 134 17.184 125.661 120z" fill="#c5cede"/><path data-name="Path" d="M96 104.212L19.811 119 0 14.788 76.189 0 96 104.212z" transform="translate(34)" fill="url(#b)"/><path data-name="Path" d="M128 103.584L54.192 118 35 16.415 108.808 2 128 103.584z" fill="#e0e0e0"/><path transform="translate(43 8)" fill="url(#c)" d="M0 0h78v106H0z"/><path data-name="Rectangle" fill="#fff" d="M44 9h75v103H44z"/><path data-name="Path" d="M0 11.814A12.421 12.421 0 0 0 12.651 24 12.415 12.415 0 0 0 25 11.512 12.363 12.363 0 0 0 16.59 0l.038 3.178a4.216 4.216 0 0 1-4.181 4.238 4.219 4.219 0 0 1-4.284-4.127L8.125.111A12.348 12.348 0 0 0 0 11.814z" transform="translate(70 15)" fill="url(#d)"/><path data-name="Path" d="M25 12.365A12.433 12.433 0 0 0 12.5 0a12.346 12.346 0 0 0-4.233 24v-3.185A4.221 4.221 0 0 1 12.5 16.63a4.221 4.221 0 0 1 4.233 4.185V24A12.377 12.377 0 0 0 25 12.365z" transform="translate(70 13)" fill="url(#e)"/><circle cx="5" cy="5" r="5" transform="translate(77 19)" fill="#fff" stroke="#fff" stroke-miterlimit="10"/><path data-name="Path" d="M82 30a4.081 4.081 0 0 0-4 4.135v3.146a11.493 11.493 0 0 0 8 0v-3.146A4.081 4.081 0 0 0 82 30zM77.533 24.182a4.561 4.561 0 0 1-.524-2.42 3.2 3.2 0 0 1 1.091-2.19 4.621 4.621 0 0 1 2.628-.879 24.911 24.911 0 0 0 2.816-.207A5.887 5.887 0 0 0 87.3 16a7.562 7.562 0 0 1-.021 2.113 2.577 2.577 0 0 1-1.122 1.74c.748-.337.666.454.5.927.371.436 1.271.509 1.316 1.074a3.476 3.476 0 0 1-.188 1.668c-.225.52.016 1.439-.562 1.479" fill="#fff" stroke="#fff" stroke-miterlimit="10"/><path data-name="Path" d="M86 20s3.676.278 1.061 5" fill="#fff"/><path data-name="Rectangle" transform="translate(51 91)" fill="url(#f)" d="M0 0h10v10H0z"/><path data-name="Rectangle" fill="#ffbc0d" d="M52 92h8v9h-8z"/><path data-name="Rectangle" fill="#00c5ba" d="M70 48h25v2H70z"/><path data-name="Rectangle" fill="#e0e0e0" d="M70 50h42v2H70zM70 53h42v2H70z"/><path data-name="Rectangle" fill="#00c5ba" d="M70 70h25v2H70z"/><path data-name="Rectangle" fill="#e0e0e0" d="M70 73h42v2H70zM70 75h42v2H70z"/><path data-name="Rectangle" fill="#00c5ba" d="M70 93h25v2H70z"/><path data-name="Rectangle" fill="#e0e0e0" d="M70 95h42v2H70zM70 98h42v2H70z"/><path data-name="Path" d="M36.879 14.352H31.07a15.509 15.509 0 1 0-.265 4.21h6.067a2.1 2.1 0 1 0 0-4.21z" transform="translate(0 66)" fill="url(#f)"/><path d="M15.5 96A14.5 14.5 0 0 1 5.247 71.247a14.5 14.5 0 0 1 20.506 20.506A14.405 14.405 0 0 1 15.5 96zm0-26.85A12.352 12.352 0 1 0 27.851 81.5 12.365 12.365 0 0 0 15.5 69.15z" fill="#fff"/><path data-name="Path" d="M29 80h6.362A1.711 1.711 0 0 1 37 81.776v.449A1.711 1.711 0 0 1 35.362 84H29z" fill="#fff"/><circle data-name="Oval" cx="12.5" cy="12.5" r="12.5" transform="translate(3 69)" fill="url(#g)"/><path data-name="Path" d="M17.269 76.239a1.988 1.988 0 0 0-.741 2.712 5.751 5.751 0 0 0 .9.854 1.348 1.348 0 0 1 .513 1.1 1.562 1.562 0 0 1-.333.694 7.083 7.083 0 0 0-1.559 2.665 3.676 3.676 0 0 0 .679 2.692 2.292 2.292 0 0 0 1.2.993 1.932 1.932 0 0 0 1.63-.4 5.838 5.838 0 0 0 1.168-1.317l.808-1.114A2.031 2.031 0 0 0 22 84.1c.028-.656-.563-1.147-.765-1.767-.373-1.151.657-2.341.519-3.549-.213-1.828-2.925-3.399-4.485-2.545z" opacity=".2"/></svg>