<svg xmlns="http://www.w3.org/2000/svg" width="169" height="122"><defs><linearGradient id="a" x1=".235" y1=".5" x2=".758" y2="1.318" gradientUnits="objectBoundingBox"><stop offset="0" stop-color="#fa7009"/><stop offset="1" stop-color="#ffbc0d"/></linearGradient></defs><ellipse cx="57.5" cy="57" rx="57.5" ry="57" transform="translate(15)" fill="#f2f2f2"/><ellipse data-name="Oval" cx="23" cy="3.5" rx="23" ry="3.5" transform="translate(0 115)" fill="#f2f2f2"/><ellipse data-name="Oval" cx="35" cy="5.5" rx="35" ry="5.5" transform="translate(99 107)" fill="#f2f2f2"/><path d="M125.813 59s.287.966-1.358 1.836-2.134 4.154-.194 5.12 2.522 2.222 1.552 3.092-2.713 3.188-.388 3.767 2.619 1.739 1.94 2.222 1.552-.87 1.552-.87.388 2.319 2.425 1.739 7.758-11.592 4.849-13.138S125.813 59 125.813 59z" fill="#2f2e41"/><path data-name="Path" d="M129.75 68.433s1 3.62-.75 3.879a6.712 6.712 0 0 0-3 1.288l3.25 4.4h6l3.75-3.879s-5-3.878-4-6.206-5.25.518-5.25.518z" fill="#ffb9b9"/><path data-name="Path" d="M129.75 68.433s1 3.62-.75 3.879a6.712 6.712 0 0 0-3 1.288l3.25 4.4h6l3.75-3.879s-5-3.878-4-6.206-5.25.518-5.25.518z" opacity=".1"/><path data-name="Path" d="M131 113.727l5.9 2.02 4.1.253-.256-3.535-8.462-2.465-1.282 3.727z" fill="#ffb9b9"/><path data-name="Path" d="M139 112.346s0 3.526.513 3.526 7.433-.756 9.483 0 5.126-2.015 3.588-3.526-4.046-3.778-5.611-3.274-7.973 1.763-7.973 1.763zM119.7 109s-3.021 6.3-1.008 6.823a6.723 6.723 0 0 0 4.528-.523c.252-.262 3.774-1.312 4.277-.787s.5-2.1.5-2.1z" fill="#808f9a"/><path data-name="Path" d="M122.651 101s-4.964 6.8-1.306 8.627 21.165 1.83 22.471 0 1.829-7.582 0-8.1-21.165-.527-21.165-.527z" fill="#2f2e41"/><path data-name="Path" d="M122.651 101s-4.964 6.8-1.306 8.627 21.165 1.83 22.471 0 1.829-7.582 0-8.1-21.165-.527-21.165-.527z" opacity=".2"/><circle data-name="Oval" cx="6" cy="6" r="6" transform="translate(126 58)" fill="#ffb9b9"/><path data-name="Path" d="M122 73.04l5.227-1.04s1.307 4.16 5.489 3.38 5.227-3.38 5.227-3.38 3.136 1.3 3.4 1.3S145 74.6 145 75.38s-3.92 8.58-3.92 8.58L141.6 98l-19.339-.52 1.307-13.78z" fill="#00af9e"/><path data-name="Path" d="M118.947 80s-1.684 13.986-.561 15.042S124 99 124 99v-3.167l-2.246-3.958L124 82.639zM146 80s-.854 14.145-.854 14.664S142.951 97 142.22 97 141 95.7 141 95.7l1.707-2.076-1.219-10.639z" fill="#ffb9b9"/><path data-name="Path" d="M144.061 99.806s11.672-6.313 11.931 0-5.966 8.838-5.966 8.838-16.081 4.695-16.726 2.979-1.949-4.494-.911-4.747 2.334-.758 2.853-.253 7-3.788 7-3.788z" fill="#2f2e41"/><path data-name="Path" d="M149 99a14.019 14.019 0 0 0-3 1.867c-.75.8-4 2.133-4 2.133" fill="none" stroke="#000" stroke-miterlimit="10" stroke-width="2" opacity=".2"/><path data-name="Path" d="M123.938 73.524L122.346 73s-5.839 6.024-3.981 7.6 2.919 2.1 3.45 2.619S125 84 125 84zM142.45 75l2.219.514a38.34 38.34 0 0 0 2.218 4.372c.493.514-.739.257-1.479 1.286S143.929 84 142.45 84 139 81.429 139 81.429z" fill="#00af9e"/><path data-name="Path" d="M122.758 101.682s-9.935-6.915-13.333-1.793 14.64 12.038 17.255 13.062 4.967 2.049 4.967 2.049 2.353-5.634 2.353-6.659-1.83-1.024-2.353-1.024-2.876-.512-3.4-1.281-5.489-4.354-5.489-4.354z" fill="#2f2e41"/><path data-name="Path" d="M117 100a15.41 15.41 0 0 0 4.9 2.353A4.843 4.843 0 0 1 125 104" fill="none" stroke="#000" stroke-miterlimit="10" stroke-width="2" opacity=".2"/><path data-name="Path" d="M121 90.428l.207 11.2A1.387 1.387 0 0 0 122.6 103l20.425-.234a1.386 1.386 0 0 0 1.356-1.321L145 90.482a1.418 1.418 0 0 0-.375-1.042 1.361 1.361 0 0 0-1-.44h-21.251a1.361 1.361 0 0 0-.981.42 1.417 1.417 0 0 0-.393 1.008z" fill="#808f9a"/><path data-name="Path" d="M132.282 57s.34 1.08-1.582 2.052-2.49 4.643-.226 5.723 2.943 2.483 1.811 3.455-3.17 3.563-.453 4.211 3.056 1.944 2.264 2.483 1.804-.972 1.804-.972.453 2.591 2.83 1.944 4.749-12.425 2.1-15.458c-2.46-2.82-8.548-3.438-8.548-3.438z" fill="#2f2e41"/><path data-name="Path" d="M131 55.759c0-1.628 4.928-.459 7.041 1.813 1.459 1.574 3.685 3.941 1.823 5.609s3.192 3.856 4.547 4.519 4.032 2.691 1.615 4.051-2.377 2.734-1.468 3.059-2-.483-2-.483.29 2.686-2.166 2.673-9.499-13.344-7.816-17.049c1.564-3.445-1.576-4.192-1.576-4.192z" fill="#2f2e41"/><path data-name="Path" d="M131.99 56.021c-6.352-.367-6.99 4.222-6.99 4.222.044 2.657 4.439 1.357 5.659 1.757 1.473-1.017 4.311-2.94 6.341-4.312a9.866 9.866 0 0 0-5.01-1.667z" fill="#2f2e41"/><path data-name="Path" d="M130 86s-5.786-27.24-42-47" fill="none" stroke="#3f3d56" stroke-miterlimit="10" stroke-width="2"/><path data-name="Path" d="M89.922 39l.078.273-1.578.327.5 1.316-.317.084L88 39.4l1.922-.4z" fill="#3f3d56"/><path data-name="Path" d="M9 7.529C9 10.843 6.985 12 4.5 12h-.172c-.115 0-.229-.008-.342-.015C1.743 11.828 0 10.611 0 7.529 0 4.34 4.168.316 4.481.018L4.5 0S9 4.216 9 7.529z" transform="translate(1 106)" fill="url(#a)"/><path data-name="Path" d="M5.918 117.495l1.745-2.249-1.749 2.5v.258c-.122 0-.243-.008-.362-.015l.188-3.316v-.03l.018-.313L4 111.823l1.759 2.267v.066l.142-2.505-1.501-2.585 1.52 2.146.152-5.194-.025 4.1 1.495-1.629-1.5 1.977L6 112.709l1.4-2.153-1.4 2.483-.026 1.247L8 111.29l-2.034 3.431z" fill="#3f3d56"/><path data-name="Path" d="M32.77 113.7l.967-.7s.64 3.477-.074 4-3.39 1.388-3.39 2.43-6.066 2.431-6.244.87a3.377 3.377 0 0 1 .535-2.433s2.854-2.779 3.211-3.3S29.024 113 29.024 113z" fill="#2f2e41"/><path data-name="Path" d="M18 67.99s.027.159.075.451c.044.259.1.624.177 1.075.765 4.638 3 18.29 2.846 18.74-.182.543-1.458 2.533 0 3.076a1.126 1.126 0 0 1 .454.49 10.478 10.478 0 0 1 .771 1.806 78.894 78.894 0 0 1 2.336 9.288c.235 1.22.4 2.2.443 2.714a1.466 1.466 0 0 1 .005.358c-.182.724 1.093 3.257 1.64 3.981s1.458 1.448 1.275 2.171 4.555 2.714 5.1 1.448a22.978 22.978 0 0 0 .729-2.352c.182-.362.364-2.9-.547-3.257s-.364-6.695-1.275-7.961a17.311 17.311 0 0 1-1.255-3.566c-.191-.673-.384-1.39-.574-2.108-.769-2.944-1.45-5.906-1.45-5.906l.182-21.17L18.911 66l-.257.563-.512 1.116zM16.957 102.643s-1.486-1.443-2.229 0-1.486 7.057-2.787 8.319-2.972 7.6-1.115 7.957 3.9-.543 4.087-1.628S19 110.6 19 110.058s-2.6-2.532-2.6-2.532z" fill="#2f2e41"/><path data-name="Path" d="M40 58.5s-2.395 21.17-2.948 23.161-3.5 9.591-4.421 10.858-6.817 11.581-7.554 12.125-2.211 1.991-2.211 1.991-2.766 2.714-3.131 3.257-3.501-1.086-3.685-2.171a10.969 10.969 0 0 1 .369-3.621c.181-.723-.369-1.809.181-2.351s3.316-3.257 3.316-4.524 4.79-8.686 6.632-10.315a5.332 5.332 0 0 0 1.474-4.343v-11.04L17.893 68.45s.553-8.686 1.842-8.686S37.973 56.868 40 58.5z" fill="#2f2e41"/><circle data-name="Oval" cx="6" cy="6" r="6" transform="translate(19 16)" fill="#9f616a"/><path data-name="Path" d="M27.167 27.173s.742 2.8 1.67 3.541-2.413 3.913-2.413 3.913l-6.31.373L19 31.459s2.042-4.1 1.485-6.709 6.682 2.423 6.682 2.423z" fill="#9f616a"/><path data-name="Path" d="M11.471 0S9.858.182 9.5.727a6.375 6.375 0 0 1-4.84 1.818c-1.972-.364-3.226-.909-3.585-.727S0 5.818 0 5.818l1.972 5.818-.358 16L1.075 32S0 30.545 4.3 31.455s9.858-.727 11.651-.909 4.84-.727 5.019-1.818a29.16 29.16 0 0 0-.538-5.091l-2.866-12.182-1.793-6.546z" transform="translate(18 30)" fill="url(#a)"/><path data-name="Path" d="M28 29.387s1.539-.809 2.085-.087 7.462 1.8 7.462 2.346S39 46.806 38.639 48.07a3.657 3.657 0 0 0 .728 2.707l1.274 5.414s3.458 10.287 2 10.648a9.553 9.553 0 0 1-3.276 0c-.546 0-.364-6.858-1.82-8.663a40.486 40.486 0 0 1-3.822-7.219c-.362-.902-4.912-13.357-4.73-14.799S28 29.387 28 29.387zM20.288 30s-1.388 0-1.562.36a19.562 19.562 0 0 1-2.6 3.24c-.697.541-3.126 2.881-3.126 3.421s5.032 4.5 5.032 4.5 2.082 10.622 1.041 14.222-2.603 12.242-1.909 12.782 2.256.72 2.256 0 1.041-8.461 1.909-10.081 3.47-11.882 2.429-14.762S20.288 30 20.288 30z" fill="#d0cde1"/><path data-name="Path" d="M44 48s.183 5.741-1.83 8.7a35.348 35.348 0 0 0-3.299 6.3s-3.295-.926-3.844-2.037S31 60.778 31 60.407s4.21-2.222 4.576-2.593 1.647-.37 2.379-1.114a4.938 4.938 0 0 0 .916-2.4l.729-4.819z" fill="#9f616a"/><path data-name="Path" d="M28.83 18.516a3.4 3.4 0 0 0 1.322-.3 1.771 1.771 0 0 0 .453-2.622 3.388 3.388 0 0 0-.628-.505l-1.358-.929a6.643 6.643 0 0 0-1.919-1.017 5.98 5.98 0 0 0-1.956-.116 13.232 13.232 0 0 0-3.753.683 6.28 6.28 0 0 0-3.04 2.225 6.687 6.687 0 0 0-.532 5.831A19.779 19.779 0 0 0 20.44 27l.615-3a1.108 1.108 0 0 1 .348-.719c.553-.393 1.229.414 1.907.409a1.142 1.142 0 0 0 .967-.765 4.363 4.363 0 0 0 .214-1.284 3.517 3.517 0 0 1 1.273-2.709c.812-.473 2.154-.332 3.066-.416z" fill="#2f2e41"/><path data-name="Path" d="M29 69.055s-.539 17.399-.858 17.934 0-17.989 0-17.989z" opacity=".1"/><path data-name="Path" d="M36 32h1.494s6.348 8.324 5.6 8.867 0 1.99 0 1.99l1.494 2.714s1.867 1.629 1.312 1.991a6.609 6.609 0 0 0-1.307 1.81s-3.739-.543-4.859 1.628l-2.421-2.963z" fill="#d0cde1"/><path d="M31.393 36.27l4.975-2.0425 3.8296 9.216-4.976 2.043z" fill="#2f2e41"/><path data-name="Oval" d="M35.7845 39.6336a1.028 1.028 0 0 0 .617-1.3172 1.038 1.038 0 0 0-1.3727-.5 1.028 1.028 0 0 0-.617 1.3173 1.038 1.038 0 0 0 1.3727.4999z" fill="#925386"/><path data-name="Path" d="M31.928 45.843s-13.143 10.945-15.333 7.479 2.373-6.385 2.373-6.385a16.087 16.087 0 0 0 8.579-2.737l4.564-2.007s4.166-5.942 5.589-3.679-2.427 6.203-5.772 7.329z" fill="#9f616a"/><path data-name="Path" d="M14.6 36l-1.906.733v5.5L12 43.327s.173 2.2.694 2.748 1.561.366 1.214 1.649a7.32 7.32 0 0 0-.173 2.564s3.122 4.213 3.3 3.663 2.6-7.327 2.948-7.327S16.509 36 16.509 36z" fill="#d0cde1"/><path data-name="Path" d="M38.813 64s1.855-1.725.927-1.811-4.155-1.811-4.693-.948S38.813 64 38.813 64z" fill="#2f2e41"/><ellipse data-name="Oval" cx="2.5" cy="1.5" rx="2.5" ry="1.5" transform="translate(72 26)" fill="#57b894"/><path data-name="Path" d="M84 32a26.653 26.653 0 0 0-18 0v-6.776a33.711 33.711 0 0 1 18 0z" fill="#ffbc0d"/><path data-name="Path" d="M82 31a18.579 18.579 0 0 0-13 0v-5.082a23.479 23.479 0 0 1 13 0z" fill="#ffbc0d"/><ellipse data-name="Oval" cx="2.5" cy="1.5" rx="2.5" ry="1.5" transform="translate(73 26)" fill="none" stroke="#ffd361" stroke-miterlimit="10" stroke-width="2"/><path data-name="Oval" d="M76.0427 37.9705c1.4138-.2886 2.4376-1.1231 2.2847-1.8676s-1.4243-1.1178-2.8382-.8292-2.4366 1.123-2.2846 1.8676 1.4238 1.1158 2.838.8292z" fill="#57b894"/><path data-name="Path" d="M87 39.38A24.317 24.317 0 0 0 69.463 43L68 35.752a30.687 30.687 0 0 1 17.537-3.62z" fill="#ffbc0d"/><path data-name="Path" d="M84 38.367A18.109 18.109 0 0 0 71.078 41L70 35.728A22.861 22.861 0 0 1 82.922 33.1z" fill="#ffbc0d"/><path data-name="Oval" d="M76.8237 37.1885c1.4138-.2886 2.4376-1.1231 2.2847-1.8676s-1.4243-1.1178-2.8382-.8292-2.4366 1.123-2.2846 1.8676 1.4238 1.1158 2.838.8292z" fill="none" stroke="#ffd361" stroke-miterlimit="10" stroke-width="2"/><ellipse data-name="Oval" cx="1.376" cy="2.614" rx="1.376" ry="2.614" transform="rotate(-86.019 61.1125 -15.6882)" fill="#57b894"/><path data-name="Path" d="M84.5 50A24.366 24.366 0 0 0 67 48.8l.5-7.055A30.77 30.77 0 0 1 85 42.946z" fill="#ffbc0d"/><path data-name="Path" d="M82.641 49A16.446 16.446 0 0 0 70 48.066l.359-5.486A20.726 20.726 0 0 1 83 43.514z" fill="#ffbc0d"/><ellipse data-name="Oval" cx="1.376" cy="2.614" rx="1.376" ry="2.614" transform="rotate(-86.019 61.3008 -16.4778)" fill="none" stroke="#ffd361" stroke-miterlimit="10" stroke-width="2"/><path data-name="Path" d="M64 33.212S52.916 31.857 45 36" fill="none" stroke="#3f3d56" stroke-miterlimit="10" stroke-width="2"/><path data-name="Path" d="M44.6 34l.312.085-.491 1.32 1.579.322-.077.273L44 35.608 44.6 34z" fill="#3f3d56"/></svg>