<svg xmlns="http://www.w3.org/2000/svg" xmlns:xlink="http://www.w3.org/1999/xlink" width="213.613" height="108"><defs><linearGradient id="a" x1=".5" y1="1" x2=".5" gradientUnits="objectBoundingBox"><stop offset="0" stop-color="gray" stop-opacity=".251"/><stop offset=".54" stop-color="gray" stop-opacity=".122"/><stop offset="1" stop-color="gray" stop-opacity=".102"/></linearGradient><linearGradient id="c" x1=".5" y1="1" x2=".5" xlink:href="#a"/><linearGradient id="d" x1=".5" y1="1" x2=".5" xlink:href="#a"/><linearGradient id="e" x1=".5" y1="1" x2=".5" xlink:href="#a"/><linearGradient id="f" x1=".501" y1="1" x2=".501" xlink:href="#a"/><linearGradient id="g" x1=".5" y1="1" x2=".5" xlink:href="#a"/><linearGradient id="h" x1=".5" y1="1" x2=".5" xlink:href="#a"/><linearGradient id="i" x1=".5" y1="1" x2=".5" xlink:href="#a"/><linearGradient id="j" x1=".5" y1="1" x2=".5" xlink:href="#a"/><linearGradient id="k" x1=".501" y1="1" x2=".501" xlink:href="#a"/><linearGradient id="l" x1=".5" y1="1" x2=".5" gradientUnits="objectBoundingBox"><stop offset="0" stop-color="#b3b3b3" stop-opacity=".251"/><stop offset=".54" stop-color="#b3b3b3" stop-opacity=".102"/><stop offset="1" stop-color="#b3b3b3" stop-opacity=".051"/></linearGradient><linearGradient id="b" x1=".5" y1="1.001" x2=".5" gradientUnits="objectBoundingBox"><stop offset="0" stop-opacity=".122"/><stop offset=".55" stop-opacity=".09"/><stop offset="1" stop-opacity=".02"/></linearGradient><linearGradient id="m" x1=".5" y1=".999" x2=".5" xlink:href="#b"/><linearGradient id="n" y1=".5" x2="1" y2=".5" gradientUnits="objectBoundingBox"><stop offset="0" stop-color="#b56da8"/><stop offset="1" stop-color="#8e5082"/></linearGradient></defs><g data-name="undraw_house_searching_n8mp (1)" transform="translate(-.221)"><ellipse cx="40.5" cy="40" rx="40.5" ry="40" opacity=".3" transform="translate(8 12)" stroke="#ff9800" stroke-miterlimit="10" stroke-width="4" stroke-dasharray="12" fill="none"/><ellipse data-name="Oval" cx="40.5" cy="40" rx="40.5" ry="40" transform="translate(114 4)" fill="none" stroke="#ff9800" stroke-miterlimit="10" stroke-width="4" stroke-dasharray="12" opacity=".3"/><path d="M4.575 25.1a10.093 10.093 0 0 1-2.722-6.889 10.236 10.236 0 0 1 4.994-8.742A5.955 5.955 0 0 1 5.8 6.113 6.207 6.207 0 0 1 12.1 0a6.273 6.273 0 0 1 6.043 4.4A9.44 9.44 0 0 1 26.182 0a9.251 9.251 0 0 1 9.386 9.109 8.851 8.851 0 0 1-.575 3.144c.189-.013.381-.029.575-.029a7.424 7.424 0 0 1 7.532 7.311 7.178 7.178 0 0 1-.038.738 9.08 9.08 0 0 1 5.657 8.341 9.22 9.22 0 0 1-9.355 9.08 9.679 9.679 0 0 1-1.619-.139c.027.3.045.609.045.917a10.347 10.347 0 0 1-10.5 10.189 10.656 10.656 0 0 1-5.978-1.815 7.947 7.947 0 0 1-5.076 1.815A7.728 7.728 0 0 1 8.4 41.055c0-.181.016-.36.029-.539H8.4A8.277 8.277 0 0 1 0 32.365 8.125 8.125 0 0 1 4.575 25.1z" transform="translate(165.116 35.154)" fill="url(#a)"/><path d="M170.32 59.728a9.548 9.548 0 0 1-2.569-6.51 9.675 9.675 0 0 1 4.716-8.262 5.63 5.63 0 0 1-.984-3.179A5.865 5.865 0 0 1 177.431 36a5.936 5.936 0 0 1 5.713 4.157A8.915 8.915 0 0 1 190.72 36a8.739 8.739 0 0 1 8.862 8.615 8.372 8.372 0 0 1-.543 2.971c.18-.013.36-.027.543-.027a7.013 7.013 0 0 1 7.113 6.91 6.789 6.789 0 0 1-.037.7A8.591 8.591 0 0 1 212 63.053a8.71 8.71 0 0 1-8.834 8.58 9.134 9.134 0 0 1-1.538-.13c.026.285.042.574.042.866A9.773 9.773 0 0 1 191.757 82a10.071 10.071 0 0 1-5.645-1.714A7.5 7.5 0 0 1 181.336 82a7.3 7.3 0 0 1-7.406-7.193c0-.172.013-.34.026-.51h-.025A7.819 7.819 0 0 1 166 66.594a7.68 7.68 0 0 1 4.32-6.866z" fill="#00c5ba"/><path data-name="4f2fbb80-d4ec-4696-8eab-975803e285fc" d="M188 50v54" fill="#795548"/><path transform="translate(186 50)" fill="url(#c)" d="M0 0h3v54H0z"/><path data-name="Rectangle" fill="#795548" d="M187 50h2v54h-2z"/><path data-name="964f69dd-bb5e-4ecb-a4f0-6b0cfaf1e31d" d="M188 66l-10-10" fill="#795548"/><path data-name="Rectangle" d="M177.715 56.46l1.154-1.1313 9.583 9.7655-1.154 1.1313z" fill="#795548"/><path data-name="72c4e71e-02d3-4be2-bc6f-3754e61bbdeb" d="M188 74l10-7" fill="#795548"/><path data-name="Rectangle" d="M187.41 73.385l9.9341-6.9641.9283 1.3228-9.9341 6.964z" fill="#795548"/><g data-name="09ddf46a-2bb3-497c-83d6-f7ff730d3d58"><path data-name="Path" d="M42.426 25.715a10.779 10.779 0 0 0-2.183-16.009 6.382 6.382 0 0 0 1-3.446A6.158 6.158 0 0 0 35.192 0a6.084 6.084 0 0 0-5.808 4.507A8.958 8.958 0 0 0 21.662 0a9.18 9.18 0 0 0-9.021 9.33 9.6 9.6 0 0 0 .552 3.22c-.182-.013-.366-.029-.552-.029A7.38 7.38 0 0 0 5.4 20.009c0 .256.013.507.038.756A9.313 9.313 0 0 0 0 29.307a9.15 9.15 0 0 0 8.99 9.3 8.743 8.743 0 0 0 1.552-.141c-.027.309-.042.623-.042.939a10.266 10.266 0 0 0 10.089 10.436 9.81 9.81 0 0 0 5.744-1.859 7.357 7.357 0 0 0 4.877 1.859 7.67 7.67 0 0 0 7.538-7.8c0-.186-.016-.37-.027-.554h.027a8.211 8.211 0 0 0 8.07-8.348 8.382 8.382 0 0 0-4.392-7.428z" transform="translate(147.173 35.096)" fill="url(#d)"/></g><path d="M187.95 60.733a9.979 9.979 0 0 0-2.006-14.771 5.912 5.912 0 0 0 .92-3.181A5.671 5.671 0 0 0 181.3 37a5.593 5.593 0 0 0-5.321 4.16 8.219 8.219 0 0 0-7.093-4.16 8.453 8.453 0 0 0-8.286 8.611 8.9 8.9 0 0 0 .508 2.972c-.167-.013-.336-.026-.508-.026a6.921 6.921 0 0 0-6.614 7.608A8.607 8.607 0 0 0 149 64.051a8.419 8.419 0 0 0 8.258 8.583 7.992 7.992 0 0 0 1.429-.13c-.024.287-.039.575-.039.866a9.451 9.451 0 0 0 9.264 9.63 8.978 8.978 0 0 0 5.275-1.715 6.737 6.737 0 0 0 4.48 1.715 7.063 7.063 0 0 0 6.922-7.2c0-.172-.013-.342-.024-.511h.024A7.563 7.563 0 0 0 192 67.587a7.735 7.735 0 0 0-4.05-6.854z" fill="#00af9e"/><path data-name="Rectangle" transform="translate(170 50)" fill="url(#d)" d="M0 0h3v55H0z"/><path data-name="Rectangle" fill="#795548" d="M171 51h1v54h-1z"/><path data-name="Rectangle" d="M171.453 66.208l9.0736-9.7883.8071.7473-9.0736 9.7884zM162.128 68.477l.6558-.8831 9.4094 6.9756-.6582.8863z" fill="#795548"/><path data-name="Path" d="M3.08 16.828a6.752 6.752 0 0 1-1.83-4.62 6.853 6.853 0 0 1 3.361-5.856 3.978 3.978 0 0 1-.7-2.255A4.171 4.171 0 0 1 8.149 0a4.222 4.222 0 0 1 4.068 2.948A6.362 6.362 0 0 1 17.626 0a6.214 6.214 0 0 1 6.318 6.1 5.907 5.907 0 0 1-.387 2.108c.128 0 .255-.02.387-.02A4.982 4.982 0 0 1 29 13.09a4.789 4.789 0 0 1-.026.495 6.083 6.083 0 0 1 3.808 5.59 6.192 6.192 0 0 1-6.3 6.083 6.545 6.545 0 0 1-1.1-.092c.02.2.031.407.031.614a6.944 6.944 0 0 1-7.066 6.82 7.2 7.2 0 0 1-4.006-1.195 5.364 5.364 0 0 1-3.417 1.206 5.193 5.193 0 0 1-5.28-5.1 2.179 2.179 0 0 1 .02-.361h-.02A5.558 5.558 0 0 1 0 21.69a5.443 5.443 0 0 1 3.08-4.862z" transform="translate(144.002 59.174)" fill="url(#e)"/><path data-name="3f6c00ca-74d6-4e4e-a4d6-8f160f37aa24" d="M147.92 75.993a6.438 6.438 0 0 1-1.738-4.388 6.521 6.521 0 0 1 3.178-5.567 3.8 3.8 0 0 1-.66-2.144 3.952 3.952 0 0 1 4-3.894 3.991 3.991 0 0 1 3.845 2.8 6 6 0 0 1 5.115-2.8 5.89 5.89 0 0 1 5.972 5.8 5.645 5.645 0 0 1-.365 2c.122 0 .241-.017.365-.017a4.726 4.726 0 0 1 4.792 4.656 4.578 4.578 0 0 1-.024.47 5.784 5.784 0 0 1 3.6 5.321 5.87 5.87 0 0 1-5.952 5.784 6.15 6.15 0 0 1-1.03-.087c.017.192.028.387.028.583a6.586 6.586 0 0 1-6.678 6.49 6.78 6.78 0 0 1-3.8-1.156 5.052 5.052 0 0 1-3.23 1.156 4.927 4.927 0 0 1-5-4.849 2.255 2.255 0 0 1 .017-.343h-.013A5.269 5.269 0 0 1 145 80.616a5.177 5.177 0 0 1 2.92-4.623z" fill="#009688"/><path data-name="8a7e076a-6ecd-440d-86c8-bd2eb9f9fc08" d="M159 69v37" fill="#795548"/><path data-name="Rectangle" transform="translate(158 69)" fill="url(#f)" d="M0 0h2v37H0z"/><path data-name="Rectangle" fill="#795548" d="M158 69h1v37h-1z"/><path d="M159 81l-7-7" fill="#795548"/><path data-name="Rectangle" d="M152.183 74.409l.7855-.77 6.5258 6.6569-.7856.77z" fill="#795548"/><path d="M159 86l7-4" fill="#795548"/><path data-name="Rectangle" d="M158.792 85.942l6.767-4.7488.6318.9004-6.767 4.7488z" fill="#795548"/><path data-name="Path" d="M28.044 16.936A7.073 7.073 0 0 0 26.6 6.393a4.2 4.2 0 0 0 .655-2.27 3.988 3.988 0 0 0-7.84-1.155A5.925 5.925 0 0 0 14.317 0a6.055 6.055 0 0 0-5.962 6.145 6.3 6.3 0 0 0 .365 2.121c-.12 0-.242-.02-.365-.02a4.822 4.822 0 0 0-3.407 1.467 4.9 4.9 0 0 0-1.379 3.465 3.418 3.418 0 0 0 .024.5A6.132 6.132 0 0 0 0 19.3a6.037 6.037 0 0 0 5.942 6.125 5.8 5.8 0 0 0 1.028-.092c-.017.2-.028.409-.028.618a6.774 6.774 0 0 0 6.667 6.873 6.5 6.5 0 0 0 3.8-1.223 4.873 4.873 0 0 0 3.224 1.223 5.02 5.02 0 0 0 3.544-1.524 5.1 5.1 0 0 0 1.436-3.607 2.542 2.542 0 0 0-.017-.365h.017a5.419 5.419 0 0 0 5.335-5.5 5.517 5.517 0 0 0-2.904-4.892z" transform="translate(138.026 61.044)" fill="url(#g)"/><path d="M165.182 78a6.58 6.58 0 0 0 1.613-5.3 6.65 6.65 0 0 0-3.013-4.669 3.888 3.888 0 0 0 .643-2.143 3.82 3.82 0 0 0-3.308-3.844 3.869 3.869 0 0 0-4.292 2.756 5.787 5.787 0 0 0-10.373 5.01c-.117 0-.225-.018-.354-.018a4.648 4.648 0 0 0-4.637 4.65 3.228 3.228 0 0 0 .023.469 5.781 5.781 0 0 0 3.273 11.012q-.027.289-.027.585A6.479 6.479 0 0 0 151.193 93a6.411 6.411 0 0 0 3.681-1.156A4.784 4.784 0 0 0 158 93a4.84 4.84 0 0 0 4.829-4.849 2.232 2.232 0 0 0-.018-.343h.018a5.277 5.277 0 0 0 3.681-1.545 5.089 5.089 0 0 0 1.49-3.65A5.194 5.194 0 0 0 165.182 78z" fill="#00c5ba"/><path data-name="Rectangle" transform="translate(153 70)" fill="url(#d)" d="M0 0h2v37H0z"/><path data-name="Rectangle" fill="#795548" d="M154 71h1v36h-1z"/><path data-name="Rectangle" d="M153.6852 81.4383l6.0864-6.5728.5474.5069-6.0894 6.57zM147.4257 82.964l.4424-.5956 6.3118 4.6875-.44.5925z" fill="#795548"/><path data-name="Rectangle" transform="translate(89 52)" fill="url(#d)" d="M0 0h63v56H0z"/><path data-name="Rectangle" fill="#fff" d="M49 52h102v54H49z"/><path data-name="Path" d="M100 26H0V0h96.35A3.643 3.643 0 0 1 100 3.636z" transform="translate(56 31)" fill="url(#d)"/><path data-name="Path" d="M56 32h95.355A3.618 3.618 0 0 1 155 35.591V56H56z" fill="#925386"/><path data-name="Path" d="M56 32h95.355A3.618 3.618 0 0 1 155 35.591V56H56z" fill="#fff" opacity=".7"/><path data-name="Path" d="M34.5 0L0 24.388V105h69V24.388L34.5 0z" transform="translate(21 3)" fill="url(#d)"/><path data-name="Path" d="M88 26.882L55.5 3 23 26.882V47h65V26.882z" fill="#925386"/><path data-name="Path" d="M88 26.882L55.5 3 23 26.882V47h65V26.882z" fill="#fff" opacity=".5"/><path data-name="Rectangle" fill="#fff" d="M23 47h65v59H23z"/><path data-name="Path" d="M77.111 38L40 11.8 2.444 38 0 28.785 40 0l40 28.785L77.111 38z" transform="translate(16 1)" fill="url(#h)"/><path data-name="Path" d="M92.422 38L55.5 11.446 18.578 38 17 29.685 55.5 2 94 29.685 92.422 38z" fill="#ffbc0d"/><path data-name="Rectangle" fill="#f2f2f2" d="M37 60h37v46H37z"/><path data-name="Rectangle" fill="#dc3c37" d="M37 60h37v8H37zM37 98h37v8H37z"/><path data-name="Path" d="M117.5 90a.5.5 0 1 0-.5-.5.5.5 0 0 0 .5.5z" fill="#0f0"/><path data-name="Rectangle" fill="#f2f2f2" d="M109 72h18v34h-18zM132 65h17v12h-17z"/><path data-name="Rectangle" fill="#925386" opacity=".2" d="M132 65h17v5h-17z"/><g data-name="47cb54cf-6c9b-4864-bf0d-76585f8d162f"><path data-name="Path" d="M2.6 14.393a5.826 5.826 0 0 1-1.556-3.949 5.89 5.89 0 0 1 2.834-5.011 3.441 3.441 0 0 1-.591-1.928 3.58 3.58 0 0 1 7-.978A5.337 5.337 0 0 1 14.842.005a5.273 5.273 0 0 1 5.32 5.223 5.128 5.128 0 0 1-.327 1.806c.109 0 .222-.016.327-.016a4.23 4.23 0 0 1 4.269 4.191 4.164 4.164 0 0 1-.022.422 5.191 5.191 0 0 1-2.1 9.987 5.426 5.426 0 0 1-.918-.079c.016.174.024.348.024.526a5.9 5.9 0 0 1-5.949 5.842 6 6 0 0 1-3.389-1.041A4.474 4.474 0 0 1 9.2 27.908a4.411 4.411 0 0 1-4.44-4.365 2.047 2.047 0 0 1 .016-.309H4.76A4.718 4.718 0 0 1 0 18.562a4.662 4.662 0 0 1 2.6-4.169z" transform="translate(11.22 69.079)" fill="url(#i)"/></g><path data-name="3ed80c62-65f0-4ea6-94fa-12b45cf1e111" d="M14.44 83.415a5.4 5.4 0 0 1-1.452-3.68 5.469 5.469 0 0 1 2.665-4.67 3.182 3.182 0 0 1-.555-1.8 3.333 3.333 0 0 1 1.008-2.332A3.3 3.3 0 0 1 18.46 70a3.349 3.349 0 0 1 3.225 2.35A5.037 5.037 0 0 1 25.974 70a4.939 4.939 0 0 1 5.008 4.867 4.734 4.734 0 0 1-.306 1.68c.1 0 .2-.015.306-.015A3.97 3.97 0 0 1 35 80.438a3.84 3.84 0 0 1-.02.393A4.851 4.851 0 0 1 38 85.29a4.923 4.923 0 0 1-4.993 4.852 5.16 5.16 0 0 1-.874-.075c.015.16.024.325.024.49A5.525 5.525 0 0 1 26.553 96a5.688 5.688 0 0 1-3.179-.972 4.238 4.238 0 0 1-2.708.972 4.127 4.127 0 0 1-4.184-4.067 1.8 1.8 0 0 1 .015-.288h-.015A4.42 4.42 0 0 1 12 87.288a4.341 4.341 0 0 1 2.44-3.873z" fill="#00c5ba"/><path d="M23 78v30" fill="#795548"/><path data-name="Rectangle" transform="translate(22 78)" fill="url(#d)" d="M0 0h2v30H0z"/><path data-name="Rectangle" fill="#795548" d="M23 78h1v30h-1z"/><path data-name="46369620-a42d-4543-9046-c39c6dd80f7a" d="M23 86l-5-5" fill="#795548"/><path data-name="Rectangle" d="M18.0836 81.376l.654-.6412 5.4408 5.55-.6513.6384z" fill="#795548"/><path data-name="062fca71-ec11-4619-a966-9015ca52f87c" d="M24 91l5-4" fill="#795548"/><path data-name="Rectangle" d="M23.593 90.9927l5.6414-3.959.5285.7531-5.6432 3.9566z" fill="#795548"/><path data-name="Path" d="M2.6 14.393a5.826 5.826 0 0 1-1.556-3.949 5.89 5.89 0 0 1 2.834-5.011 3.441 3.441 0 0 1-.591-1.928 3.58 3.58 0 0 1 7-.978A5.337 5.337 0 0 1 14.842.005a5.273 5.273 0 0 1 5.32 5.223 5.128 5.128 0 0 1-.327 1.806c.109 0 .222-.016.327-.016a4.23 4.23 0 0 1 4.269 4.191 4.164 4.164 0 0 1-.022.422 5.191 5.191 0 0 1-2.1 9.987 5.426 5.426 0 0 1-.918-.079c.016.174.024.348.024.526a5.9 5.9 0 0 1-5.949 5.842 6 6 0 0 1-3.389-1.041A4.474 4.474 0 0 1 9.2 27.908a4.411 4.411 0 0 1-4.44-4.365 2.047 2.047 0 0 1 .016-.309H4.76A4.718 4.718 0 0 1 0 18.562a4.662 4.662 0 0 1 2.6-4.169z" transform="translate(.22 69.079)" fill="url(#i)"/><path data-name="685c56b8-497f-4668-a7ee-09f5fbc3598c" d="M3.44 83.415a5.4 5.4 0 0 1-1.452-3.68 5.469 5.469 0 0 1 2.665-4.67 3.182 3.182 0 0 1-.555-1.8 3.333 3.333 0 0 1 1.008-2.332A3.3 3.3 0 0 1 7.46 70a3.349 3.349 0 0 1 3.225 2.35A5.037 5.037 0 0 1 14.974 70a4.939 4.939 0 0 1 5.008 4.867 4.734 4.734 0 0 1-.306 1.68c.1 0 .2-.015.306-.015A3.97 3.97 0 0 1 24 80.438a3.84 3.84 0 0 1-.02.393A4.851 4.851 0 0 1 27 85.29a4.923 4.923 0 0 1-4.993 4.852 5.16 5.16 0 0 1-.874-.075c.015.16.024.325.024.49A5.525 5.525 0 0 1 15.553 96a5.688 5.688 0 0 1-3.179-.972A4.238 4.238 0 0 1 9.666 96a4.127 4.127 0 0 1-4.184-4.067 1.8 1.8 0 0 1 .015-.288h-.015A4.42 4.42 0 0 1 1 87.288a4.341 4.341 0 0 1 2.44-3.873z" fill="#009688"/><path data-name="6da80e84-a8c0-407e-a753-005b95fbf056" d="M13 78v30" fill="#795548"/><path data-name="Rectangle" transform="translate(12 78)" fill="url(#d)" d="M0 0h2v30H0z"/><path data-name="Rectangle" fill="#795548" d="M12 78h1v30h-1z"/><path data-name="956986cd-9b04-40a5-a6ac-3e412b0f623a" d="M13 86l-5-5" fill="#795548"/><path data-name="Rectangle" d="M7.2306 81.377l.654-.6412 5.4408 5.55-.6513.6384z" fill="#795548"/><path data-name="52f85bb0-cc07-4469-ba3e-635298721117" d="M13 91l5-4" fill="#795548"/><path data-name="Rectangle" d="M12.738 90.9937l5.6414-3.959.5285.7531-5.6432 3.9566z" fill="#795548"/><g data-name="2b13a509-cfb1-48b6-9a8a-884e17259990"><path data-name="Path" d="M23.4 14.273a6 6 0 0 0-1.2-8.889 3.555 3.555 0 0 0 .553-1.911A3.371 3.371 0 0 0 19.9.039 3.33 3.33 0 0 0 16.208 2.5a4.866 4.866 0 0 0-7.8-.963 5.158 5.158 0 0 0-1.434 3.636 5.35 5.35 0 0 0 .3 1.778c-.1 0-.2-.016-.3-.016a4.005 4.005 0 0 0-2.851 1.242 4.145 4.145 0 0 0-1.145 2.932 2.972 2.972 0 0 0 .02.42 5.168 5.168 0 0 0-3 4.738 5.071 5.071 0 0 0 4.957 5.158 4.8 4.8 0 0 0 .859-.078c-.015.171-.024.344-.024.52a5.671 5.671 0 0 0 5.563 5.778 5.4 5.4 0 0 0 3.168-1.031 4.044 4.044 0 0 0 2.69 1.031 4.242 4.242 0 0 0 4.151-4.322 2.045 2.045 0 0 0-.015-.307h.015a4.544 4.544 0 0 0 4.451-4.629 4.652 4.652 0 0 0-2.413-4.114z" transform="translate(4.015 69.211)" fill="url(#j)"/></g><path d="M26.739 83.419a5.7 5.7 0 0 0 1.29-4.439 5.6 5.6 0 0 0-2.41-3.913 3.374 3.374 0 0 0 .513-1.8 3.16 3.16 0 0 0-2.646-3.233 3.1 3.1 0 0 0-3.435 2.321A4.58 4.58 0 0 0 16.091 70a4.752 4.752 0 0 0-4.613 4.871 5.086 5.086 0 0 0 .284 1.679c-.093 0-.188-.016-.283-.016a3.813 3.813 0 0 0-3.711 3.906 2.644 2.644 0 0 0 .019.394A4.865 4.865 0 0 0 5 85.29a4.736 4.736 0 0 0 4.609 4.85 4.405 4.405 0 0 0 .8-.073c-.013.163-.022.325-.022.49A5.312 5.312 0 0 0 15.557 96a4.969 4.969 0 0 0 2.945-.969A3.733 3.733 0 0 0 21 96a3.855 3.855 0 0 0 2.75-1.21 4.085 4.085 0 0 0 1.114-2.857 2.145 2.145 0 0 0-.013-.29h.013a4.128 4.128 0 0 0 2.945-1.3 4.471 4.471 0 0 0-1.069-6.926z" fill="#00af9e"/><path data-name="Rectangle" transform="translate(17 78)" fill="url(#k)" d="M0 0h1v30H0z"/><path data-name="Rectangle" fill="#795548" d="M17 78h1v30h-1z"/><path data-name="Rectangle" d="M17.5697 86.5744l5.074-5.4795.4564.4226-5.077 5.4768zM12.3463 87.8445l.3679-.4954 5.2624 3.9083-.366.493z" fill="#795548"/><path d="M78.264 88h-.034a1.648 1.648 0 0 1-1.154-.507l-24.45-25.472a33.763 33.763 0 0 1-43.376-4.8 33.385 33.385 0 0 1-7-11.119 34.326 34.326 0 0 1 .257-25.092A33.777 33.777 0 0 1 33.776 0h.254a33.9 33.9 0 0 1 32.284 43.14 33.784 33.784 0 0 1-5.224 10.728L85.541 79.34A1.66 1.66 0 0 1 86 80.515a1.639 1.639 0 0 1-.506 1.157L79.4 87.539a1.636 1.636 0 0 1-1.136.461zM33.771 9.657A24.05 24.05 0 0 0 17 16.427a24.3 24.3 0 0 0-.661 34.273 24.214 24.214 0 0 0 34.868-33.609 23.968 23.968 0 0 0-17.436-7.434z" transform="translate(100 2)" fill="url(#l)"/><path data-name="Path" d="M2 0a2 2 0 0 0 0 4 2 2 0 1 0 0-4z" transform="translate(114 29)" fill="url(#b)"/><path data-name="Path" d="M18.038.005A20.667 20.667 0 0 0 .247 9.113c-1.174 1.817 2.159 3.423 3.325 1.615a17.04 17.04 0 0 1 14.751-7.39 18.836 18.836 0 0 1 15.339 8.832c1.174 1.913 4.243.173 3.079-1.728A22.822 22.822 0 0 0 18.038.005z" transform="translate(117 15)" fill="url(#m)"/><path data-name="Shape" d="M78.262 88h-.034a1.652 1.652 0 0 1-1.155-.507L52.625 62.021a33.762 33.762 0 0 1-43.375-4.8 33.385 33.385 0 0 1-7-11.119 34.328 34.328 0 0 1 .257-25.092A33.777 33.777 0 0 1 33.775 0h.254a33.905 33.905 0 0 1 32.285 43.139 33.791 33.791 0 0 1-5.222 10.727l24.449 25.472A1.66 1.66 0 0 1 86 80.513a1.638 1.638 0 0 1-.506 1.157L79.4 87.539a1.636 1.636 0 0 1-1.138.461zM33.77 9.657A24.049 24.049 0 0 0 17 16.427a24.3 24.3 0 0 0-.661 34.273 24.213 24.213 0 0 0 34.867-33.609A23.966 23.966 0 0 0 33.77 9.657z" transform="translate(103)" fill="url(#n)"/><path data-name="Path" d="M119 27a2 2 0 0 0 0 4 2 2 0 1 0 0-4zM138.038 14.005a20.667 20.667 0 0 0-17.791 9.108c-1.174 1.817 2.159 3.423 3.325 1.615a17.04 17.04 0 0 1 14.751-7.39 18.836 18.836 0 0 1 15.339 8.832c1.174 1.913 4.243.173 3.079-1.728a22.839 22.839 0 0 0-18.703-10.437z" fill="#ffbc0d"/></g></svg>