<svg id="Livello_11" data-name="Livello 11" xmlns="http://www.w3.org/2000/svg" viewBox="0 0 60 50"><defs><style>.cls-1{fill:#664c85;}</style></defs><path id="path" class="cls-1" d="M35.43,6.68A10.15,10.15,0,1,1,30,5.1a10.48,10.48,0,0,1,5.45,1.58h0M22.29,14.14a7.77,7.77,0,1,0,15.44,1.53,7.77,7.77,0,0,0-15.44-1.53h0m5.16,12.47c2.82.91,5.69-.14,8.46-.81C39.35,25.56,43.13,27,45,30c1.87,2.82,1.67,6.26,1.67,9.46a4.87,4.87,0,0,1-4.3,5.35c-7.88.1-15.82,0-23.75,0a4.87,4.87,0,0,1-5.36-4.3c0-3.15-.38-6.5,1.1-9.46C16,27.47,20.19,25.66,24,25.75c1.15.19,2.29.58,3.44.86h0m4.49,2.58c-2.62.53-5.21-.28-7.74-1a7.7,7.7,0,0,0-6.84,2.63c-2,2.43-1.72,5.68-1.72,8.6a2.53,2.53,0,0,0,2.15,3H41.31a2.52,2.52,0,0,0,3-2.15c0-2.58.29-5.3-.66-7.84-1.06-3-4.31-4.44-7.32-4.35-1.48.34-2.91.81-4.4,1.05h0"/></svg>